<?xml version="1.0" encoding="utf-8"?>
<!-- Generator: Adobe Illustrator 25.0.0, SVG Export Plug-In . SVG Version: 6.00 Build 0)  -->
<svg version="1.1" id="Layer_4" xmlns="http://www.w3.org/2000/svg" xmlns:xlink="http://www.w3.org/1999/xlink" x="0px" y="0px"
	 viewBox="0 0 1008 1440" style="enable-background:new 0 0 1008 1440;" xml:space="preserve">
<style type="text/css">
	.st0{fill:none;stroke:#000000;stroke-width:0.5;stroke-linecap:round;stroke-linejoin:round;stroke-miterlimit:10;}
	.st1{fill:none;stroke:#000000;stroke-linecap:round;stroke-linejoin:round;stroke-miterlimit:10;}
</style>
<g>
	<polygon class="st0" points="556,569.4 559.9,573.2 559.9,576.8 556,580.6 552.2,576.8 552.2,573.2 	"/>
	<polyline class="st0" points="563.8,584.2 559.9,588 556,584.2 556,580.6 	"/>
	<polyline class="st0" points="556,584.2 552.2,588 548.3,584.2 548.3,580.6 552.2,576.8 	"/>
	<polyline class="st0" points="571.5,584.2 567.6,588 563.8,584.2 563.8,580.6 	"/>
	<polyline class="st0" points="579.2,584.2 575.4,588 571.5,584.2 571.5,580.6 	"/>
	<polyline class="st0" points="587,584.2 583.1,588 579.2,584.2 579.2,580.6 	"/>
	<polyline class="st0" points="594.7,584.2 590.8,588 587,584.2 587,580.6 	"/>
	<polyline class="st0" points="602.4,584.2 598.6,588 594.7,584.2 594.7,582.9 	"/>
	<polyline class="st0" points="610.2,584.2 606.3,588 602.4,584.2 602.4,582.9 	"/>
	<polyline class="st0" points="617.9,584.2 614,588 610.2,584.2 610.2,580.6 	"/>
	<polyline class="st0" points="625.6,584.2 621.8,588 617.9,584.2 617.9,580.6 	"/>
	<polyline class="st0" points="633.4,584.2 629.5,588 625.6,584.2 625.6,580.6 	"/>
	<polyline class="st0" points="641.1,584.2 637.2,588 633.4,584.2 633.4,580.6 	"/>
	<polyline class="st0" points="648.8,584.2 645,588 641.1,584.2 641.1,580.6 	"/>
	<polyline class="st0" points="652.7,588 648.8,584.2 648.8,580.6 	"/>
	<line class="st0" x1="556" y1="566.8" x2="556" y2="569.3"/>
	<polyline class="st0" points="552.2,573.2 548.3,569.3 548.3,566.8 	"/>
	<polyline class="st0" points="559.9,573.2 563.8,569.4 567.6,573.2 567.6,576.8 563.8,580.6 559.9,576.8 	"/>
	<polyline class="st0" points="567.6,573.2 571.5,569.4 575.4,573.2 575.4,576.8 571.5,580.6 567.6,576.8 	"/>
	<polyline class="st0" points="575.4,573.2 579.2,569.4 583.1,573.2 583.1,576.8 579.2,580.6 575.4,576.8 	"/>
	<polyline class="st0" points="583.1,573.2 587,569.4 590.8,573.2 590.8,576.8 587,580.6 583.1,576.8 	"/>
	<line class="st0" x1="592.8" y1="578.7" x2="590.8" y2="576.8"/>
	<polyline class="st0" points="590.8,573.2 594.7,569.4 598.2,572.9 	"/>
	<polyline class="st0" points="599,572.8 602.4,569.4 606.3,573.2 606.3,576.8 604.3,578.7 	"/>
	<polyline class="st0" points="606.3,573.2 610.2,569.4 614,573.2 614,576.8 610.2,580.6 606.3,576.8 	"/>
	<polyline class="st0" points="614,573.2 617.9,569.4 621.8,573.2 621.8,576.8 617.9,580.6 614,576.8 	"/>
	<polyline class="st0" points="621.8,573.2 625.6,569.4 629.5,573.2 629.5,576.8 625.6,580.6 621.8,576.8 	"/>
	<polyline class="st0" points="629.5,573.2 633.4,569.4 637.2,573.2 637.2,576.8 633.4,580.6 629.5,576.8 	"/>
	<polyline class="st0" points="637.2,573.2 641.1,569.4 645,573.2 645,576.8 641.1,580.6 637.2,576.8 	"/>
	<polyline class="st0" points="645,573.2 648.8,569.4 652.7,573.2 652.7,576.8 648.8,580.6 645,576.8 	"/>
	<line class="st0" x1="556" y1="569.4" x2="556" y2="566.8"/>
	<line class="st0" x1="563.8" y1="569.4" x2="563.8" y2="566.8"/>
	<line class="st0" x1="571.5" y1="569.4" x2="571.5" y2="566.8"/>
	<line class="st0" x1="579.2" y1="569.4" x2="579.2" y2="566.8"/>
	<line class="st0" x1="587" y1="569.4" x2="587" y2="566.8"/>
	<line class="st0" x1="594.7" y1="569.4" x2="594.7" y2="566.8"/>
	<line class="st0" x1="602.4" y1="569.4" x2="602.4" y2="566.8"/>
	<line class="st0" x1="610.2" y1="569.4" x2="610.2" y2="566.8"/>
	<line class="st0" x1="617.9" y1="569.4" x2="617.9" y2="566.8"/>
	<line class="st0" x1="625.6" y1="569.4" x2="625.6" y2="566.8"/>
	<line class="st0" x1="633.4" y1="569.4" x2="633.4" y2="566.8"/>
	<line class="st0" x1="641.1" y1="569.4" x2="641.1" y2="566.8"/>
	<line class="st0" x1="648.8" y1="569.4" x2="648.8" y2="566.8"/>
	<polygon class="st0" points="559.9,590.6 563.8,594.4 563.8,598 559.9,601.8 556,598 556,594.4 	"/>
	<polyline class="st0" points="552.2,601.8 548.3,598 548.3,594.4 552.2,590.6 	"/>
	<line class="st0" x1="559.9" y1="588" x2="559.9" y2="590.5"/>
	<polyline class="st0" points="556,594.4 552.2,590.5 552.2,588 	"/>
	<polyline class="st0" points="563.8,594.4 567.6,590.6 571.5,594.4 571.5,598 567.6,601.8 563.8,598 	"/>
	<polyline class="st0" points="571.5,594.4 575.4,590.6 579.2,594.4 579.2,598 575.4,601.8 571.5,598 	"/>
	<polyline class="st0" points="579.2,594.4 583.1,590.6 587,594.4 587,598 583.1,601.8 579.2,598 	"/>
	<polyline class="st0" points="587,594.4 590.8,590.6 594.7,594.4 594.7,598 590.8,601.8 587,598 	"/>
	<polyline class="st0" points="594.7,594.4 598.6,590.6 602.4,594.4 602.4,598 598.6,601.8 594.7,598 	"/>
	<polyline class="st0" points="602.4,594.4 606.3,590.6 610.2,594.4 610.2,598 606.3,601.8 602.4,598 	"/>
	<polyline class="st0" points="610.2,594.4 614,590.6 617.9,594.4 617.9,598 614,601.8 610.2,598 	"/>
	<polyline class="st0" points="617.9,594.4 621.8,590.6 625.6,594.4 625.6,598 621.8,601.8 617.9,598 	"/>
	<polyline class="st0" points="625.6,594.4 629.5,590.6 633.4,594.4 633.4,598 629.5,601.8 625.6,598 	"/>
	<polyline class="st0" points="633.4,594.4 637.2,590.6 641.1,594.4 641.1,598 637.2,601.8 633.4,598 	"/>
	<polyline class="st0" points="641.1,594.4 645,590.6 648.8,594.4 648.8,598 645,601.8 641.1,598 	"/>
	<line class="st0" x1="652.7" y1="601.8" x2="648.8" y2="598"/>
	<line class="st0" x1="648.8" y1="594.4" x2="652.7" y2="590.6"/>
	<line class="st0" x1="559.9" y1="590.6" x2="559.9" y2="588"/>
	<line class="st0" x1="567.6" y1="590.6" x2="567.6" y2="588"/>
	<line class="st0" x1="575.4" y1="590.6" x2="575.4" y2="588"/>
	<line class="st0" x1="583.1" y1="590.6" x2="583.1" y2="588"/>
	<line class="st0" x1="590.8" y1="590.6" x2="590.8" y2="588"/>
	<line class="st0" x1="598.6" y1="590.6" x2="598.6" y2="588"/>
	<line class="st0" x1="606.3" y1="590.6" x2="606.3" y2="588"/>
	<line class="st0" x1="614" y1="590.6" x2="614" y2="588"/>
	<line class="st0" x1="621.8" y1="590.6" x2="621.8" y2="588"/>
	<line class="st0" x1="629.5" y1="590.6" x2="629.5" y2="588"/>
	<line class="st0" x1="637.2" y1="590.6" x2="637.2" y2="588"/>
	<line class="st0" x1="645" y1="590.6" x2="645" y2="588"/>
	<line class="st0" x1="652.7" y1="590.6" x2="652.7" y2="588"/>
	<polygon class="st0" points="552.2,604.4 556,608.2 556,611.8 552.2,615.6 548.3,611.8 548.3,608.2 	"/>
	<polyline class="st0" points="559.9,619.2 556,623 552.2,619.2 552.2,615.6 	"/>
	<line class="st0" x1="552.2" y1="619.2" x2="548.3" y2="623"/>
	<polyline class="st0" points="567.6,619.2 563.8,623 559.9,619.2 559.9,615.6 	"/>
	<polyline class="st0" points="575.4,619.2 571.5,623 567.6,619.2 567.6,615.6 	"/>
	<polyline class="st0" points="583.1,619.2 579.2,623 575.4,619.2 575.4,615.6 	"/>
	<polyline class="st0" points="590.8,619.2 587,623 583.1,619.2 583.1,615.6 	"/>
	<polyline class="st0" points="598.6,619.2 594.7,623 590.8,619.2 590.8,615.6 	"/>
	<polyline class="st0" points="606.3,619.2 602.4,623 598.6,619.2 598.6,615.6 	"/>
	<polyline class="st0" points="614,619.2 610.2,623 606.3,619.2 606.3,615.6 	"/>
	<polyline class="st0" points="621.8,619.2 617.9,623 614,619.2 614,615.6 	"/>
	<polyline class="st0" points="629.5,619.2 625.6,623 621.8,619.2 621.8,615.6 	"/>
	<polyline class="st0" points="637.2,619.2 633.4,623 629.5,619.2 629.5,615.6 	"/>
	<polyline class="st0" points="645,619.2 641.1,623 637.2,619.2 637.2,615.6 	"/>
	<polyline class="st0" points="652.7,619.2 648.8,623 645,619.2 645,615.6 	"/>
	<line class="st0" x1="652.7" y1="619.2" x2="652.7" y2="615.6"/>
	<line class="st0" x1="552.2" y1="601.8" x2="552.2" y2="604.3"/>
	<polyline class="st0" points="556,608.2 559.9,604.4 563.8,608.2 563.8,611.8 559.9,615.6 556,611.8 	"/>
	<polyline class="st0" points="563.8,608.2 567.6,604.4 571.5,608.2 571.5,611.8 567.6,615.6 563.8,611.8 	"/>
	<polyline class="st0" points="571.5,608.2 575.4,604.4 579.2,608.2 579.2,611.8 575.4,615.6 571.5,611.8 	"/>
	<polyline class="st0" points="579.2,608.2 583.1,604.4 587,608.2 587,611.8 583.1,615.6 579.2,611.8 	"/>
	<polyline class="st0" points="587,608.2 590.8,604.4 594.7,608.2 594.7,611.8 590.8,615.6 587,611.8 	"/>
	<polyline class="st0" points="594.7,608.2 598.6,604.4 602.4,608.2 602.4,611.8 598.6,615.6 594.7,611.8 	"/>
	<polyline class="st0" points="602.4,608.2 606.3,604.4 610.2,608.2 610.2,611.8 606.3,615.6 602.4,611.8 	"/>
	<polyline class="st0" points="610.2,608.2 614,604.4 617.9,608.2 617.9,611.8 614,615.6 610.2,611.8 	"/>
	<polyline class="st0" points="617.9,608.2 621.8,604.4 625.6,608.2 625.6,611.8 621.8,615.6 617.9,611.8 	"/>
	<polyline class="st0" points="625.6,608.2 629.5,604.4 633.4,608.2 633.4,611.8 629.5,615.6 625.6,611.8 	"/>
	<polyline class="st0" points="633.4,608.2 637.2,604.4 641.1,608.2 641.1,611.8 637.2,615.6 633.4,611.8 	"/>
	<polyline class="st0" points="641.1,608.2 645,604.4 648.8,608.2 648.8,611.8 645,615.6 641.1,611.8 	"/>
	<line class="st0" x1="652.7" y1="615.6" x2="648.8" y2="611.8"/>
	<line class="st0" x1="648.8" y1="608.2" x2="652.7" y2="604.4"/>
	<polyline class="st0" points="552.2,604.4 552.2,601.8 556,598 	"/>
	<line class="st0" x1="559.9" y1="604.4" x2="559.9" y2="601.8"/>
	<line class="st0" x1="567.6" y1="604.4" x2="567.6" y2="601.8"/>
	<line class="st0" x1="575.4" y1="604.4" x2="575.4" y2="601.8"/>
	<line class="st0" x1="583.1" y1="604.4" x2="583.1" y2="601.8"/>
	<line class="st0" x1="590.8" y1="604.4" x2="590.8" y2="601.8"/>
	<line class="st0" x1="598.6" y1="604.4" x2="598.6" y2="601.8"/>
	<line class="st0" x1="606.3" y1="604.4" x2="606.3" y2="601.8"/>
	<line class="st0" x1="614" y1="604.4" x2="614" y2="601.8"/>
	<line class="st0" x1="621.8" y1="604.4" x2="621.8" y2="601.8"/>
	<line class="st0" x1="629.5" y1="604.4" x2="629.5" y2="601.8"/>
	<line class="st0" x1="637.2" y1="604.4" x2="637.2" y2="601.8"/>
	<line class="st0" x1="645" y1="604.4" x2="645" y2="601.8"/>
	<line class="st0" x1="652.7" y1="604.4" x2="652.7" y2="601.8"/>
	<polygon class="st0" points="556,625.6 559.9,629.4 559.9,633 556,636.8 552.2,633 552.2,629.4 	"/>
	<line class="st0" x1="556" y1="623" x2="556" y2="625.5"/>
	<polyline class="st0" points="552.2,629.4 548.3,625.5 548.3,623 	"/>
	<polyline class="st0" points="559.9,629.4 563.8,625.6 567.6,629.4 567.6,633 563.8,636.8 559.9,633 	"/>
	<polyline class="st0" points="567.6,629.4 571.5,625.6 575.4,629.4 575.4,633 571.5,636.8 567.6,633 	"/>
	<polyline class="st0" points="575.4,629.4 579.2,625.6 583.1,629.4 583.1,633 579.2,636.8 575.4,633 	"/>
	<polyline class="st0" points="583.1,629.4 587,625.6 590.8,629.4 590.8,633 587,636.8 583.1,633 	"/>
	<polyline class="st0" points="590.8,629.4 594.7,625.6 598.6,629.4 598.6,633 594.7,636.8 590.8,633 	"/>
	<polyline class="st0" points="598.6,629.4 602.4,625.6 606.3,629.4 606.3,633 602.4,636.8 598.6,633 	"/>
	<polyline class="st0" points="606.3,629.4 610.2,625.6 614,629.4 614,633 610.2,636.8 606.3,633 	"/>
	<polyline class="st0" points="614,629.4 617.9,625.6 621.8,629.4 621.8,633 617.9,636.8 614,633 	"/>
	<polyline class="st0" points="621.8,629.4 625.6,625.6 629.5,629.4 629.5,633 625.6,636.8 621.8,633 	"/>
	<polyline class="st0" points="629.5,629.4 633.4,625.6 637.2,629.4 637.2,633 633.4,636.8 629.5,633 	"/>
	<polyline class="st0" points="637.2,629.4 641.1,625.6 645,629.4 645,633 641.1,636.8 637.2,633 	"/>
	<polyline class="st0" points="645,629.4 648.8,625.6 652.7,629.4 652.7,633 648.8,636.8 645,633 	"/>
	<line class="st0" x1="556" y1="625.6" x2="556" y2="623"/>
	<line class="st0" x1="563.8" y1="625.6" x2="563.8" y2="623"/>
	<line class="st0" x1="571.5" y1="625.6" x2="571.5" y2="623"/>
	<line class="st0" x1="579.2" y1="625.6" x2="579.2" y2="623"/>
	<line class="st0" x1="587" y1="625.6" x2="587" y2="623"/>
	<line class="st0" x1="594.7" y1="625.6" x2="594.7" y2="623"/>
	<line class="st0" x1="602.4" y1="625.6" x2="602.4" y2="623"/>
	<line class="st0" x1="610.2" y1="625.6" x2="610.2" y2="623"/>
	<line class="st0" x1="617.9" y1="625.6" x2="617.9" y2="623"/>
	<line class="st0" x1="625.6" y1="625.6" x2="625.6" y2="623"/>
	<line class="st0" x1="633.4" y1="625.6" x2="633.4" y2="623"/>
	<line class="st0" x1="641.1" y1="625.6" x2="641.1" y2="623"/>
	<line class="st0" x1="648.8" y1="625.6" x2="648.8" y2="623"/>
	<polygon class="st0" points="556,639.4 559.9,643.2 559.9,646.8 556,650.6 552.2,646.8 552.2,643.2 	"/>
	<polyline class="st0" points="563.8,654.2 559.9,658 556,654.2 556,650.6 	"/>
	<polyline class="st0" points="556,654.2 552.2,658 548.3,654.2 548.3,650.6 552.2,646.8 	"/>
	<polyline class="st0" points="571.5,654.2 567.6,658 563.8,654.2 563.8,650.6 	"/>
	<polyline class="st0" points="579.2,654.2 575.4,658 571.5,654.2 571.5,650.6 	"/>
	<polyline class="st0" points="587,654.2 583.1,658 579.2,654.2 579.2,650.6 	"/>
	<polyline class="st0" points="594.7,654.2 590.8,658 587,654.2 587,650.6 	"/>
	<polyline class="st0" points="602.4,654.2 598.6,658 594.7,654.2 594.7,650.6 	"/>
	<polyline class="st0" points="610.2,654.2 606.3,658 602.4,654.2 602.4,650.6 	"/>
	<polyline class="st0" points="617.9,654.2 614,658 610.2,654.2 610.2,650.6 	"/>
	<polyline class="st0" points="625.6,654.2 621.8,658 617.9,654.2 617.9,650.6 	"/>
	<polyline class="st0" points="633.4,654.2 629.5,658 625.6,654.2 625.6,650.6 	"/>
	<polyline class="st0" points="641.1,654.2 637.2,658 633.4,654.2 633.4,650.6 	"/>
	<polyline class="st0" points="648.8,654.2 645,658 641.1,654.2 641.1,650.6 	"/>
	<polyline class="st0" points="652.7,658 648.8,654.2 648.8,650.6 	"/>
	<line class="st0" x1="556" y1="636.8" x2="556" y2="639.3"/>
	<polyline class="st0" points="552.2,643.2 548.3,639.4 548.3,636.8 552.2,633 	"/>
	<polyline class="st0" points="559.9,643.2 563.8,639.4 567.6,643.2 567.6,646.8 563.8,650.6 559.9,646.8 	"/>
	<polyline class="st0" points="567.6,643.2 571.5,639.4 575.4,643.2 575.4,646.8 571.5,650.6 567.6,646.8 	"/>
	<polyline class="st0" points="575.4,643.2 579.2,639.4 583.1,643.2 583.1,646.8 579.2,650.6 575.4,646.8 	"/>
	<polyline class="st0" points="583.1,643.2 587,639.4 590.8,643.2 590.8,646.8 587,650.6 583.1,646.8 	"/>
	<polyline class="st0" points="590.8,643.2 594.7,639.4 598.6,643.2 598.6,646.8 594.7,650.6 590.8,646.8 	"/>
	<polyline class="st0" points="598.6,643.2 602.4,639.4 606.3,643.2 606.3,646.8 602.4,650.6 598.6,646.8 	"/>
	<polyline class="st0" points="606.3,643.2 610.2,639.4 614,643.2 614,646.8 610.2,650.6 606.3,646.8 	"/>
	<polyline class="st0" points="614,643.2 617.9,639.4 621.8,643.2 621.8,646.8 617.9,650.6 614,646.8 	"/>
	<polyline class="st0" points="621.8,643.2 625.6,639.4 629.5,643.2 629.5,646.8 625.6,650.6 621.8,646.8 	"/>
	<polyline class="st0" points="629.5,643.2 633.4,639.4 637.2,643.2 637.2,646.8 633.4,650.6 629.5,646.8 	"/>
	<polyline class="st0" points="637.2,643.2 641.1,639.4 645,643.2 645,646.8 641.1,650.6 637.2,646.8 	"/>
	<polyline class="st0" points="645,643.2 648.8,639.4 652.7,643.2 652.7,646.8 648.8,650.6 645,646.8 	"/>
	<line class="st0" x1="556" y1="639.4" x2="556" y2="636.8"/>
	<line class="st0" x1="563.8" y1="639.4" x2="563.8" y2="636.8"/>
	<line class="st0" x1="571.5" y1="639.4" x2="571.5" y2="636.8"/>
	<line class="st0" x1="579.2" y1="639.4" x2="579.2" y2="636.8"/>
	<line class="st0" x1="587" y1="639.4" x2="587" y2="636.8"/>
	<line class="st0" x1="594.7" y1="639.4" x2="594.7" y2="636.8"/>
	<line class="st0" x1="602.4" y1="639.4" x2="602.4" y2="636.8"/>
	<line class="st0" x1="610.2" y1="639.4" x2="610.2" y2="636.8"/>
	<line class="st0" x1="617.9" y1="639.4" x2="617.9" y2="636.8"/>
	<line class="st0" x1="625.6" y1="639.4" x2="625.6" y2="636.8"/>
	<line class="st0" x1="633.4" y1="639.4" x2="633.4" y2="636.8"/>
	<line class="st0" x1="641.1" y1="639.4" x2="641.1" y2="636.8"/>
	<line class="st0" x1="648.8" y1="639.4" x2="648.8" y2="636.8"/>
	<polygon class="st0" points="559.9,660.6 563.8,664.4 563.8,668 559.9,671.8 556,668 556,664.4 	"/>
	<polyline class="st0" points="552.2,671.8 548.3,668 548.3,664.4 552.2,660.6 	"/>
	<line class="st0" x1="559.9" y1="658" x2="559.9" y2="660.6"/>
	<polyline class="st0" points="556,664.4 552.2,660.6 552.2,658 	"/>
	<polyline class="st0" points="563.8,664.4 567.6,660.6 571.5,664.4 571.5,668 567.6,671.8 563.8,668 	"/>
	<polyline class="st0" points="571.5,664.4 575.4,660.6 579.2,664.4 579.2,668 575.4,671.8 571.5,668 	"/>
	<polyline class="st0" points="579.2,664.4 583.1,660.6 587,664.4 587,668 583.1,671.8 579.2,668 	"/>
	<polyline class="st0" points="587,664.4 590.8,660.6 594.7,664.4 594.7,668 590.8,671.8 587,668 	"/>
	<polyline class="st0" points="594.7,664.4 598.6,660.6 602.4,664.4 602.4,668 598.6,671.8 594.7,668 	"/>
	<polyline class="st0" points="602.4,664.4 606.3,660.6 610.2,664.4 610.2,668 606.3,671.8 602.4,668 	"/>
	<polyline class="st0" points="610.2,664.4 614,660.6 617.9,664.4 617.9,668 614,671.8 610.2,668 	"/>
	<polyline class="st0" points="617.9,664.4 621.8,660.6 625.6,664.4 625.6,668 621.8,671.8 617.9,668 	"/>
	<polyline class="st0" points="625.6,664.4 629.5,660.6 633.4,664.4 633.4,668 629.5,671.8 625.6,668 	"/>
	<polyline class="st0" points="633.4,664.4 637.2,660.6 641.1,664.4 641.1,668 637.2,671.8 633.4,668 	"/>
	<polyline class="st0" points="641.1,664.4 645,660.6 648.8,664.4 648.8,668 645,671.8 641.1,668 	"/>
	<line class="st0" x1="652.7" y1="671.8" x2="648.8" y2="668"/>
	<line class="st0" x1="648.8" y1="664.4" x2="652.7" y2="660.6"/>
	<line class="st0" x1="559.9" y1="660.6" x2="559.9" y2="658"/>
	<line class="st0" x1="567.6" y1="660.6" x2="567.6" y2="658"/>
	<line class="st0" x1="575.4" y1="660.6" x2="575.4" y2="658"/>
	<line class="st0" x1="583.1" y1="660.6" x2="583.1" y2="658"/>
	<line class="st0" x1="590.8" y1="660.6" x2="590.8" y2="658"/>
	<line class="st0" x1="598.6" y1="660.6" x2="598.6" y2="658"/>
	<line class="st0" x1="606.3" y1="660.6" x2="606.3" y2="658"/>
	<line class="st0" x1="614" y1="660.6" x2="614" y2="658"/>
	<line class="st0" x1="621.8" y1="660.6" x2="621.8" y2="658"/>
	<line class="st0" x1="629.5" y1="660.6" x2="629.5" y2="658"/>
	<line class="st0" x1="637.2" y1="660.6" x2="637.2" y2="658"/>
	<line class="st0" x1="645" y1="660.6" x2="645" y2="658"/>
	<line class="st0" x1="652.7" y1="660.6" x2="652.7" y2="658"/>
	<polygon class="st0" points="552.2,674.4 556,678.2 556,681.8 552.2,685.6 548.3,681.8 548.3,678.2 	"/>
	<polyline class="st0" points="559.9,689.2 556,693 552.2,689.2 552.2,685.6 	"/>
	<line class="st0" x1="552.2" y1="689.2" x2="548.5" y2="692.8"/>
	<polyline class="st0" points="567.6,689.2 563.8,693 559.9,689.2 559.9,685.6 	"/>
	<polyline class="st0" points="575.4,689.2 571.5,693 567.6,689.2 567.6,685.6 	"/>
	<polyline class="st0" points="583.1,689.2 579.2,693 575.4,689.2 575.4,685.6 	"/>
	<polyline class="st0" points="590.8,689.2 587,693 583.1,689.2 583.1,685.6 	"/>
	<polyline class="st0" points="598.6,689.2 594.7,693 590.8,689.2 590.8,685.6 	"/>
	<polyline class="st0" points="606.3,689.2 602.4,693 598.6,689.2 598.6,685.6 	"/>
	<polyline class="st0" points="614,689.2 610.2,693 606.3,689.2 606.3,685.6 	"/>
	<polyline class="st0" points="621.8,689.2 617.9,693 614,689.2 614,685.6 	"/>
	<polyline class="st0" points="629.5,689.2 625.6,693 621.8,689.2 621.8,685.6 	"/>
	<polyline class="st0" points="637.2,689.2 633.4,693 629.5,689.2 629.5,685.6 	"/>
	<polyline class="st0" points="645,689.2 641.1,693 637.2,689.2 637.2,685.6 	"/>
	<polyline class="st0" points="652.7,689.2 648.8,693 645,689.2 645,685.6 	"/>
	<line class="st0" x1="652.7" y1="689.2" x2="652.7" y2="685.6"/>
	<line class="st0" x1="552.2" y1="671.8" x2="552.2" y2="674.3"/>
	<polyline class="st0" points="556,678.2 559.9,674.4 563.8,678.2 563.8,681.8 559.9,685.6 556,681.8 	"/>
	<polyline class="st0" points="563.8,678.2 567.6,674.4 571.5,678.2 571.5,681.8 567.6,685.6 563.8,681.8 	"/>
	<polyline class="st0" points="571.5,678.2 575.4,674.4 579.2,678.2 579.2,681.8 575.4,685.6 571.5,681.8 	"/>
	<polyline class="st0" points="579.2,678.2 583.1,674.4 587,678.2 587,681.8 583.1,685.6 579.2,681.8 	"/>
	<polyline class="st0" points="593.8,682.6 590.8,685.6 587,681.8 	"/>
	<polyline class="st0" points="587,678.2 590.8,674.4 593.4,676.9 	"/>
	<polyline class="st0" points="599.1,685.1 598.6,685.6 598,685.1 	"/>
	<polyline class="st0" points="603.7,676.9 606.3,674.4 610.2,678.2 610.2,681.8 606.3,685.6 603.3,682.6 	"/>
	<polyline class="st0" points="610.2,678.2 614,674.4 617.9,678.2 617.9,681.8 614,685.6 610.2,681.8 	"/>
	<polyline class="st0" points="617.9,678.2 621.8,674.4 625.6,678.2 625.6,681.8 621.8,685.6 617.9,681.8 	"/>
	<polyline class="st0" points="625.6,678.2 629.5,674.4 633.4,678.2 633.4,681.8 629.5,685.6 625.6,681.8 	"/>
	<polyline class="st0" points="633.4,678.2 637.2,674.4 641.1,678.2 641.1,681.8 637.2,685.6 633.4,681.8 	"/>
	<polyline class="st0" points="641.1,678.2 645,674.4 648.8,678.2 648.8,681.8 645,685.6 641.1,681.8 	"/>
	<line class="st0" x1="652.7" y1="685.6" x2="648.8" y2="681.8"/>
	<line class="st0" x1="648.8" y1="678.2" x2="652.7" y2="674.4"/>
	<polyline class="st0" points="552.2,674.4 552.2,671.8 556,668 	"/>
	<line class="st0" x1="559.9" y1="674.4" x2="559.9" y2="671.8"/>
	<line class="st0" x1="567.6" y1="674.4" x2="567.6" y2="671.8"/>
	<line class="st0" x1="575.4" y1="674.4" x2="575.4" y2="671.8"/>
	<line class="st0" x1="583.1" y1="674.4" x2="583.1" y2="671.8"/>
	<line class="st0" x1="590.8" y1="674.4" x2="590.8" y2="671.8"/>
	<line class="st0" x1="598.6" y1="673.6" x2="598.6" y2="671.8"/>
	<line class="st0" x1="606.3" y1="674.4" x2="606.3" y2="671.8"/>
	<line class="st0" x1="614" y1="674.4" x2="614" y2="671.8"/>
	<line class="st0" x1="621.8" y1="674.4" x2="621.8" y2="671.8"/>
	<line class="st0" x1="629.5" y1="674.4" x2="629.5" y2="671.8"/>
	<line class="st0" x1="637.2" y1="674.4" x2="637.2" y2="671.8"/>
	<line class="st0" x1="645" y1="674.4" x2="645" y2="671.8"/>
	<line class="st0" x1="652.7" y1="674.4" x2="652.7" y2="671.8"/>
	<g>
		<path class="st1" d="M604.3,578.7c0,3.2-2.6,5.7-5.7,5.7c-3.2,0-5.7-2.6-5.7-5.7c0-3.2,2.6-5.7,5.7-5.7
			C601.7,572.9,604.3,575.5,604.3,578.7z"/>
		<path class="st0" d="M602.4,578.7c0,2.1-1.7,3.9-3.9,3.9c-2.1,0-3.9-1.7-3.9-3.9c0-2.1,1.7-3.9,3.9-3.9
			C600.7,574.8,602.4,576.5,602.4,578.7z"/>
		<path class="st0" d="M601,578.7c0,1.3-1.1,2.4-2.4,2.4s-2.4-1.1-2.4-2.4c0-1.3,1.1-2.4,2.4-2.4S601,577.4,601,578.7z"/>
		<path class="st1" d="M604.3,679.4c0,3.2-2.6,5.7-5.7,5.7c-3.2,0-5.7-2.6-5.7-5.7c0-3.2,2.6-5.7,5.7-5.7
			C601.7,673.6,604.3,676.2,604.3,679.4z"/>
		<path class="st0" d="M602.4,679.4c0,2.1-1.7,3.9-3.9,3.9c-2.1,0-3.9-1.7-3.9-3.9s1.7-3.9,3.9-3.9
			C600.7,675.5,602.4,677.2,602.4,679.4z"/>
		<path class="st0" d="M601,679.4c0,1.3-1.1,2.4-2.4,2.4s-2.4-1.1-2.4-2.4s1.1-2.4,2.4-2.4S601,678,601,679.4z"/>
	</g>
</g>
</svg>
