<?xml version="1.0" encoding="utf-8"?>
<!-- Generator: Adobe Illustrator 25.0.0, SVG Export Plug-In . SVG Version: 6.00 Build 0)  -->
<svg version="1.1" id="Layer_4" xmlns="http://www.w3.org/2000/svg" xmlns:xlink="http://www.w3.org/1999/xlink" x="0px" y="0px"
	 viewBox="0 0 1008 1440" style="enable-background:new 0 0 1008 1440;" xml:space="preserve">
<style type="text/css">
	.st0{fill:none;stroke:#000000;stroke-linecap:round;stroke-linejoin:round;stroke-miterlimit:10;}
	.st1{fill:none;stroke:#000000;stroke-width:0.5;stroke-linecap:round;stroke-linejoin:round;stroke-miterlimit:10;}
</style>
<g>
	<g>
		<path class="st0" d="M303.3,783.7c0,3.2-2.6,5.7-5.7,5.7c-3.2,0-5.7-2.6-5.7-5.7c0-3.2,2.6-5.7,5.7-5.7
			C300.7,778,303.3,780.5,303.3,783.7z"/>
		<path class="st1" d="M301.4,783.7c0,2.1-1.7,3.9-3.9,3.9s-3.9-1.7-3.9-3.9c0-2.1,1.7-3.9,3.9-3.9S301.4,781.6,301.4,783.7z"/>
		<path class="st1" d="M300,783.7c0,1.3-1.1,2.4-2.4,2.4c-1.3,0-2.4-1.1-2.4-2.4c0-1.3,1.1-2.4,2.4-2.4
			C298.9,781.3,300,782.4,300,783.7z"/>
		<path class="st0" d="M235.2,783.7c0,3.2-2.6,5.7-5.7,5.7c-3.2,0-5.7-2.6-5.7-5.7c0-3.2,2.6-5.7,5.7-5.7
			C232.7,778,235.2,780.5,235.2,783.7z"/>
		<path class="st1" d="M233.4,783.7c0,2.1-1.7,3.9-3.9,3.9s-3.9-1.7-3.9-3.9c0-2.1,1.7-3.9,3.9-3.9S233.4,781.6,233.4,783.7z"/>
		<path class="st1" d="M231.9,783.7c0,1.3-1.1,2.4-2.4,2.4c-1.3,0-2.4-1.1-2.4-2.4c0-1.3,1.1-2.4,2.4-2.4
			C230.8,781.3,231.9,782.4,231.9,783.7z"/>
		<path class="st0" d="M302.8,812.2h-81.1c-2.3,0-4.1-1.8-4.1-4.1v-45.9c0-2.3,1.8-4.1,4.1-4.1h81.1c2.3,0,4.1,1.8,4.1,4.1v45.9
			C307,810.4,305.1,812.2,302.8,812.2z"/>
	</g>
</g>
</svg>
