<?xml version="1.0" encoding="utf-8"?>
<!-- Generator: Adobe Illustrator 25.0.0, SVG Export Plug-In . SVG Version: 6.00 Build 0)  -->
<svg version="1.1" id="Layer_4" xmlns="http://www.w3.org/2000/svg" xmlns:xlink="http://www.w3.org/1999/xlink" x="0px" y="0px"
	 viewBox="0 0 1008 1440" style="enable-background:new 0 0 1008 1440;" xml:space="preserve">
<style type="text/css">
	.st0{fill:none;stroke:#000000;stroke-miterlimit:10;}
</style>
<g>
	<g>
		<g>
			<path class="st0" d="M726.8,1003c2.4-1.5,4.7-2.5,7-4c0.3-0.2,0.6-0.9,0.5-1.3c-1.3-9.6,0.2-6.9-8.1-11.8
				c-5.9,5.7-5.6-0.7-7.3,8.6c-1.8,4.9,5.2,5.3,6,9.3l-0.4,0.3c-10.9-9-7.2-4.4-6.4-14.9c-6.6-3.3-7.8-9.1-5.2-15.6
				c2.3-4.6,2.5-9.7,4.3-14.5c0.6-2.1,1.2-4.1,1.3-6.3c0.1-2.6,0.4-5.1,0.8-7.6c0.4-2.2,0.3-4.1-1.2-5.9c-1-1.2-1.5-2.8-2.2-4.2
				c-0.4-0.9-0.7-1.9-1.2-2.8c-2.9-7-5.3-14.3-8.2-21.3c-0.6-1.5-1.5-2.5-3.2-2.6c-4.6-0.3-9.1-0.5-13.7-0.1c-2.4,0-4.8-0.2-7.2-0.4
				c-4-0.5-1-2.5,1.4-2.2c12.3,0.1,24.6,1.1,37,0.3c15.8-0.6,31.9-2.2,47.6-0.8c-0.3,1.1-0.9,1.3-1.6,1.3c-4.5,0.2-8.9,0.5-13.4,0.3
				c-1.9,0.2-4.8-1.5-5.7,1c-3.6,8.2-6.5,16.7-9.7,25.1c-1.1,2.9-2.2,5.7-3.3,8.6c0,0.1,0,0.2-0.1,0.3c-1.7,2.4-1.3,5-0.7,7.6
				c0.1,0.5,0.1,1.1,0.1,1.7c0,2.8,0.5,5.5,1.3,8.2c1,3.4,1.7,6.8,2.6,10.2c1.5,6.2,5.4,14.9-1.3,19.3c-2.4,1.5-0.7,7.2-0.2,9.6
				c1,2.1-5.9,4-7.4,5.2C728.2,1003.9,727.5,1004,726.8,1003 M716.1,932.1c0.9,0,0.6-1,0.7-1.6c-0.4-4.4,2.2-7.2,4.7-10.4
				c5-14.7,4.9-13,11-0.1c1.1,2.7,3.7,4.1,4.8,6.8c0.1,0.2,0.3,0.4,0.7,1c2.3-7.1,5.6-13.2,6.5-20.5c-11.8,0.4-23.4,0.9-35.2,1.4
				c-3.8-0.3,0.7,4.4,0.6,6.8C712.3,920.8,713.9,926.5,716.1,932.1 M726.7,976.3c0.1,2.9-0.5,5.8,0.8,8.2c2,2.2,5.8,4.5,8.6,2.4
				c6.5-7-2.1-19.2-2.5-27.3c0-2.2-2.9-1.6-4.4-1.5c-2.3,0.4-2.3,0.4-2.3,2.9C727,966.1,726.8,971.4,726.7,976.3 M725.3,965.6
				C725.4,965.6,725.4,965.6,725.3,965.6c-0.2-3.1,1.5-7.7-2.9-8.1c-1.6-0.3-2.9-0.9-3.2,1.2c-1.1,3.7-2.3,7.4-3.1,11.1
				c-0.9,4.5-4.5,9.6-1.9,14.2c2,3.2,6.2,4.3,9.3,2c0.9-0.7,1.5-1.5,1.6-2.7C725.2,977.4,725.3,971.5,725.3,965.6 M718.3,930.8
				c0.2,1.5,0.1,2.9,0.5,4.3c0.5,1.8,1.1,3.5,3.1,4.5c1.8,0.9,3.6,1.4,5.6,1.3c2.7-0.1,5-1,6.3-3.4c0.9-1.6,1.6-3.4,2-5.2
				C738.6,919,718,916.9,718.3,930.8 M721.6,955.5c3.5,0.4,6.4,1.5,9.7,0.3c-0.4-0.6-0.6-1-0.8-1.3c-0.8-1-1.7-2-2.5-3
				s-1.4-1.1-2.4-0.2c-0.9,0.8-1.9,1.6-2.8,2.5C722.4,954.1,722.1,954.7,721.6,955.5 M726.6,912.2c-1.2,2.5-2.5,4.7-3,7.4
				c1.3-0.2,2.4-0.4,3.5-0.5c1,0,3.8,1.3,3.2-0.7C729,916.4,728.7,913.7,726.6,912.2 M720.5,952.5c0.1,0.1,0.3,0.2,0.4,0.3
				c1.1-1.1,2.3-2.1,3.4-3.2c0.9-0.9,1-1.9,0.3-2.9c-0.6-0.9-1.5-1.6-2.3-2.4c-0.5-0.5-1.1-0.2-1.2,0.4
				C720.9,947.4,720.3,949.9,720.5,952.5 M731.9,953.6c0.2-0.1,0.3-0.2,0.5-0.2c-0.1-1.5-0.2-2.9-0.4-4.4c-0.2-1.4-0.1-2.8-0.9-4.3
				c-0.9,1.2-1.7,2.1-2.3,3.1c-0.3,0.4-0.4,1.2-0.2,1.6C729.6,950.8,730.7,952.2,731.9,953.6 M724.2,942.8c0.3,1.8,1.6,2.7,2.7,4
				c1.1-1.2,1.8-2.3,2.4-3.8C727.5,942.6,726,942.8,724.2,942.8"/>
			<path class="st0" d="M720.8,933.6c8.2,9.7,13.6-5,12.5,2.3c-1.5,2.6-3.2,3.5-6.4,3c-1.7-0.2-3.4-0.6-4.7-1.7
				c-0.7-0.6-1.2-1.5-1.7-2.3C720.3,934.7,720.6,934.1,720.8,933.6"/>
			<path class="st0" d="M726,933.4c-1.2-0.7-0.3-1.4,0.7-1.8C728.1,932.1,727.9,933.7,726,933.4"/>
			<path class="st0" d="M731.2,927.3c-1.1,1.1-1.6,1.1-2.2-0.1C729.5,926.1,730.2,926.5,731.2,927.3"/>
			<path class="st0" d="M723.9,926.9c-1.6,1.3-2.5-0.1-1-1.2C723.1,926.1,723.4,926.4,723.9,926.9"/>
		</g>
	</g>
</g>
</svg>
