<?xml version="1.0" encoding="utf-8"?>
<!-- Generator: Adobe Illustrator 25.0.0, SVG Export Plug-In . SVG Version: 6.00 Build 0)  -->
<svg version="1.1" id="Layer_4" xmlns="http://www.w3.org/2000/svg" xmlns:xlink="http://www.w3.org/1999/xlink" x="0px" y="0px"
	 viewBox="0 0 1008 1440" style="enable-background:new 0 0 1008 1440;" xml:space="preserve">
<style type="text/css">
	.st0{fill:none;stroke:#000000;stroke-linecap:round;stroke-linejoin:round;stroke-miterlimit:10;}
	.st1{fill:none;stroke:#000000;stroke-width:0.5;stroke-linecap:round;stroke-linejoin:round;stroke-miterlimit:10;}
</style>
<g>
	<circle class="st0" cx="613.8" cy="831.2" r="5.5"/>
	<circle class="st1" cx="613.8" cy="831.2" r="3.7"/>
	<circle class="st1" cx="613.8" cy="831.2" r="2.3"/>
	<circle class="st0" cx="796.7" cy="831.2" r="5.5"/>
	<circle class="st1" cx="796.7" cy="831.2" r="3.7"/>
	<circle class="st1" cx="796.7" cy="831.2" r="2.3"/>
	<circle class="st0" cx="613.8" cy="969.2" r="5.5"/>
	<circle class="st1" cx="613.8" cy="969.2" r="3.7"/>
	<circle class="st1" cx="613.8" cy="969.2" r="2.3"/>
	<circle class="st0" cx="796.7" cy="969.2" r="5.5"/>
	<circle class="st1" cx="796.7" cy="969.2" r="3.7"/>
	<circle class="st1" cx="796.7" cy="969.2" r="2.3"/>
	<line class="st1" x1="600.5" y1="874" x2="600.5" y2="876.4"/>
	<line class="st1" x1="808" y1="910.6" x2="808" y2="908.1"/>
	<line class="st1" x1="600.5" y1="942.3" x2="600.5" y2="944.8"/>
	<line class="st1" x1="808" y1="978.9" x2="808" y2="976.5"/>
</g>
<polygon class="st0" points="808,815.3 600.5,816.1 600.4,983.1 807.8,982.3 "/>
</svg>
