<?xml version="1.0" encoding="utf-8"?>
<!-- Generator: Adobe Illustrator 25.0.0, SVG Export Plug-In . SVG Version: 6.00 Build 0)  -->
<svg version="1.1" id="Layer_4" xmlns="http://www.w3.org/2000/svg" xmlns:xlink="http://www.w3.org/1999/xlink" x="0px" y="0px"
	 viewBox="0 0 1008 1440" style="enable-background:new 0 0 1008 1440;" xml:space="preserve">
<style type="text/css">
	.st0{fill:none;stroke:#000000;stroke-linecap:round;stroke-linejoin:round;stroke-miterlimit:10;}
	.st1{fill:none;stroke:#000000;stroke-width:1;stroke-linecap:round;stroke-linejoin:round;stroke-miterlimit:10.0003;}
	.st2{fill:none;stroke:#000000;stroke-width:0.5;stroke-linecap:round;stroke-linejoin:round;stroke-miterlimit:10;}
</style>
<g>
	<polygon class="st0" points="810.6,790 502.4,791.6 502.4,609.8 808.8,609.8 	"/>
	<g>
		<ellipse class="st1" cx="521.1" cy="699.5" rx="5.4" ry="5.4"/>
		<path class="st2" d="M524.8,699.5c0,2-1.6,3.6-3.6,3.6s-3.6-1.6-3.6-3.6s1.6-3.6,3.6-3.6C523.1,695.9,524.8,697.5,524.8,699.5z"/>
		<path class="st2" d="M523.4,699.5c0,1.2-1,2.3-2.3,2.3s-2.3-1-2.3-2.3c0-1.2,1-2.3,2.3-2.3S523.4,698.3,523.4,699.5z"/>
		<ellipse class="st1" cx="787.5" cy="699.5" rx="5.4" ry="5.4"/>
		<path class="st2" d="M791.1,699.5c0,2-1.6,3.6-3.6,3.6s-3.6-1.6-3.6-3.6s1.6-3.6,3.6-3.6S791.1,697.5,791.1,699.5z"/>
		<path class="st2" d="M789.7,699.5c0,1.2-1,2.3-2.3,2.3c-1.2,0-2.3-1-2.3-2.3c0-1.2,1-2.3,2.3-2.3
			C788.7,697.3,789.7,698.3,789.7,699.5z"/>
	</g>
</g>
</svg>
