<?xml version="1.0" encoding="utf-8"?>
<!-- Generator: Adobe Illustrator 25.0.0, SVG Export Plug-In . SVG Version: 6.00 Build 0)  -->
<svg version="1.1" id="Layer_4" xmlns="http://www.w3.org/2000/svg" xmlns:xlink="http://www.w3.org/1999/xlink" x="0px" y="0px"
	 viewBox="0 0 1008 1440" style="enable-background:new 0 0 1008 1440;" xml:space="preserve">
<style type="text/css">
	.st0{fill:none;stroke:#000000;stroke-miterlimit:10;}
	.st1{fill:#0D0D0C;}
</style>
<g>
	<g>
		<g>
			<g>
				<g>
					<path class="st0" d="M790.8,985.8H233.2c-0.2,0-0.3-0.1-0.3-0.3V517.7c0-0.2,0.1-0.3,0.3-0.3h557.7c0.2,0,0.3,0.1,0.3,0.3
						v467.8C791.1,985.7,791,985.8,790.8,985.8z M233.5,985.2h557.1V518H233.5V985.2z"/>
				</g>
			</g>
			<g>
				<g>
					<path class="st1" d="M790.8,851.3c-0.2,0-0.3-0.1-0.3-0.3v-2.3c0-0.2,0.1-0.3,0.3-0.3s0.3,0.1,0.3,0.3v2.3
						C791.1,851.2,791,851.3,790.8,851.3z"/>
				</g>
			</g>
			<g>
				<g>
					<path class="st1" d="M790.8,902.1c-0.2,0-0.3-0.1-0.3-0.3v-2.3c0-0.2,0.1-0.3,0.3-0.3s0.3,0.1,0.3,0.3v2.3
						C791.1,902,791,902.1,790.8,902.1z"/>
				</g>
			</g>
			<g>
				<g>
					<path class="st1" d="M790.8,914.6c-0.2,0-0.3-0.1-0.3-0.3V912c0-0.2,0.1-0.3,0.3-0.3s0.3,0.1,0.3,0.3v2.3
						C791.1,914.5,791,914.6,790.8,914.6z"/>
				</g>
			</g>
			<g>
				<g>
					<path class="st1" d="M790.8,965.4c-0.2,0-0.3-0.1-0.3-0.3v-2.3c0-0.2,0.1-0.3,0.3-0.3s0.3,0.1,0.3,0.3v2.3
						C791.1,965.3,791,965.4,790.8,965.4z"/>
				</g>
			</g>
			<g>
				<g>
					<path class="st1" d="M790.8,977.9c-0.2,0-0.3-0.1-0.3-0.3v-2.3c0-0.2,0.1-0.3,0.3-0.3s0.3,0.1,0.3,0.3v2.3
						C791.1,977.8,791,977.9,790.8,977.9z"/>
				</g>
			</g>
		</g>
	</g>
</g>
</svg>
