<?xml version="1.0" encoding="utf-8"?>
<!-- Generator: Adobe Illustrator 25.0.0, SVG Export Plug-In . SVG Version: 6.00 Build 0)  -->
<svg version="1.1" id="Layer_4" xmlns="http://www.w3.org/2000/svg" xmlns:xlink="http://www.w3.org/1999/xlink" x="0px" y="0px"
	 viewBox="0 0 1008 1440" style="enable-background:new 0 0 1008 1440;" xml:space="preserve">
<style type="text/css">
	.st0{fill:none;stroke:#000000;stroke-width:0.5;stroke-linecap:round;stroke-linejoin:round;stroke-miterlimit:10;}
</style>
<g>
	<polygon class="st0" points="596.7,719.1 600.5,722.8 600.5,726.3 596.7,730.1 592.9,726.3 592.9,722.8 	"/>
	<polyline class="st0" points="604.3,733.5 600.5,737.3 596.7,733.5 596.7,730.1 	"/>
	<polyline class="st0" points="596.7,733.5 592.9,737.3 589.2,733.5 589.2,730.1 592.9,726.3 	"/>
	<polyline class="st0" points="611.8,733.5 608,737.3 604.3,733.5 604.3,730.1 	"/>
	<polyline class="st0" points="619.3,733.5 615.6,737.3 611.8,733.5 611.8,730.1 	"/>
	<polyline class="st0" points="626.9,733.5 623.1,737.3 619.3,733.5 619.3,730.1 	"/>
	<polyline class="st0" points="634.4,733.5 630.7,737.3 626.9,733.5 626.9,730.1 	"/>
	<polyline class="st0" points="642,733.5 638.2,737.3 634.4,733.5 634.4,730.1 	"/>
	<polyline class="st0" points="649.5,733.5 645.8,737.3 642,733.5 642,730.1 	"/>
	<polyline class="st0" points="657.1,733.5 653.3,737.3 649.5,733.5 649.5,730.1 	"/>
	<polyline class="st0" points="664.6,733.5 660.9,737.3 657.1,733.5 657.1,730.1 	"/>
	<polyline class="st0" points="672.2,733.5 668.4,737.3 664.6,733.5 664.6,730.1 	"/>
	<polyline class="st0" points="679.7,733.5 675.9,737.3 672.2,733.5 672.2,730.1 	"/>
	<polyline class="st0" points="687.3,733.5 683.5,737.3 679.7,733.5 679.7,730.1 	"/>
	<polyline class="st0" points="694.8,733.5 691,737.3 687.3,733.5 687.3,730.1 	"/>
	<polyline class="st0" points="702.4,733.5 698.6,737.3 694.8,733.5 694.8,730.1 	"/>
	<polyline class="st0" points="709.9,733.5 706.1,737.3 702.4,733.5 702.4,730.1 	"/>
	<polyline class="st0" points="717.5,733.5 713.7,737.3 709.9,733.5 709.9,730.1 	"/>
	<polyline class="st0" points="725,733.5 721.2,737.3 717.5,733.5 717.5,730.1 	"/>
	<polyline class="st0" points="732.5,733.5 728.8,737.3 725,733.5 725,730.1 	"/>
	<polyline class="st0" points="740.1,733.5 736.3,737.3 732.5,733.5 732.5,730.1 	"/>
	<polyline class="st0" points="747.6,733.5 743.9,737.3 740.1,733.5 740.1,730.1 	"/>
	<polyline class="st0" points="755.2,733.5 751.4,737.3 747.6,733.5 747.6,730.1 	"/>
	<polyline class="st0" points="762.7,733.5 759,737.3 755.2,733.5 755.2,730.1 	"/>
	<polyline class="st0" points="770.3,733.5 766.5,737.3 762.7,733.5 762.7,730.1 	"/>
	<polyline class="st0" points="777.8,733.5 774,737.3 770.3,733.5 770.3,730.1 	"/>
	<polyline class="st0" points="785.4,733.5 781.6,737.3 777.8,733.5 777.8,730.1 	"/>
	<polyline class="st0" points="792.9,733.5 789.1,737.3 785.4,733.5 785.4,730.1 	"/>
	<polyline class="st0" points="800.5,733.5 796.7,737.3 792.9,733.5 792.9,730.1 	"/>
	<polyline class="st0" points="808,733.5 804.2,737.3 800.5,733.5 800.5,730.1 	"/>
	<polyline class="st0" points="811.8,737.3 808,733.5 808,730.1 	"/>
	<line class="st0" x1="596.7" y1="716.6" x2="596.7" y2="719"/>
	<polyline class="st0" points="592.9,722.8 589.2,719 589.2,716.6 	"/>
	<polyline class="st0" points="600.5,722.8 604.3,719.1 608,722.8 608,726.3 604.3,730.1 600.5,726.3 	"/>
	<polyline class="st0" points="608,722.8 611.8,719.1 615.6,722.8 615.6,726.3 611.8,730.1 608,726.3 	"/>
	<polyline class="st0" points="615.6,722.8 619.3,719.1 623.1,722.8 623.1,726.3 619.3,730.1 615.6,726.3 	"/>
	<polyline class="st0" points="623.1,722.8 626.9,719.1 630.7,722.8 630.7,726.3 626.9,730.1 623.1,726.3 	"/>
	<polyline class="st0" points="630.7,722.8 634.4,719.1 638.2,722.8 638.2,726.3 634.4,730.1 630.7,726.3 	"/>
	<polyline class="st0" points="638.2,722.8 642,719.1 645.8,722.8 645.8,726.3 642,730.1 638.2,726.3 	"/>
	<polyline class="st0" points="645.8,722.8 649.5,719.1 653.3,722.8 653.3,726.3 649.5,730.1 645.8,726.3 	"/>
	<polyline class="st0" points="653.3,722.8 657.1,719.1 660.9,722.8 660.9,726.3 657.1,730.1 653.3,726.3 	"/>
	<polyline class="st0" points="660.9,722.8 664.6,719.1 668.4,722.8 668.4,726.3 664.6,730.1 660.9,726.3 	"/>
	<polyline class="st0" points="668.4,722.8 672.2,719.1 675.9,722.8 675.9,726.3 672.2,730.1 668.4,726.3 	"/>
	<polyline class="st0" points="675.9,722.8 679.7,719.1 683.5,722.8 683.5,726.3 679.7,730.1 675.9,726.3 	"/>
	<polyline class="st0" points="683.5,722.8 687.3,719.1 691,722.8 691,726.3 687.3,730.1 683.5,726.3 	"/>
	<polyline class="st0" points="691,722.8 694.8,719.1 698.6,722.8 698.6,726.3 694.8,730.1 691,726.3 	"/>
	<polyline class="st0" points="698.6,722.8 702.4,719.1 706.1,722.8 706.1,726.3 702.4,730.1 698.6,726.3 	"/>
	<polyline class="st0" points="706.1,722.8 709.9,719.1 713.7,722.8 713.7,726.3 709.9,730.1 706.1,726.3 	"/>
	<polyline class="st0" points="713.7,722.8 717.5,719.1 721.2,722.8 721.2,726.3 717.5,730.1 713.7,726.3 	"/>
	<polyline class="st0" points="721.2,722.8 725,719.1 728.8,722.8 728.8,726.3 725,730.1 721.2,726.3 	"/>
	<polyline class="st0" points="728.8,722.8 732.5,719.1 736.3,722.8 736.3,726.3 732.5,730.1 728.8,726.3 	"/>
	<polyline class="st0" points="736.3,722.8 740.1,719.1 743.9,722.8 743.9,726.3 740.1,730.1 736.3,726.3 	"/>
	<polyline class="st0" points="743.9,722.8 747.6,719.1 751.4,722.8 751.4,726.3 747.6,730.1 743.9,726.3 	"/>
	<polyline class="st0" points="751.4,722.8 755.2,719.1 759,722.8 759,726.3 755.2,730.1 751.4,726.3 	"/>
	<polyline class="st0" points="759,722.8 762.7,719.1 766.5,722.8 766.5,726.3 762.7,730.1 759,726.3 	"/>
	<polyline class="st0" points="766.5,722.8 770.3,719.1 774,722.8 774,726.3 770.3,730.1 766.5,726.3 	"/>
	<polyline class="st0" points="774,722.8 777.8,719.1 781.6,722.8 781.6,726.3 777.8,730.1 774,726.3 	"/>
	<polyline class="st0" points="781.6,722.8 785.4,719.1 789.1,722.8 789.1,726.3 785.4,730.1 781.6,726.3 	"/>
	<polyline class="st0" points="789.1,722.8 792.9,719.1 796.7,722.8 796.7,726.3 792.9,730.1 789.1,726.3 	"/>
	<polyline class="st0" points="796.7,722.8 800.5,719.1 804.2,722.8 804.2,726.3 800.5,730.1 796.7,726.3 	"/>
	<polyline class="st0" points="804.2,722.8 808,719.1 811.8,722.8 811.8,726.3 808,730.1 804.2,726.3 	"/>
	<line class="st0" x1="596.7" y1="719.1" x2="596.7" y2="716.6"/>
	<line class="st0" x1="604.3" y1="719.1" x2="604.3" y2="716.6"/>
	<line class="st0" x1="611.8" y1="719.1" x2="611.8" y2="716.6"/>
	<line class="st0" x1="619.3" y1="719.1" x2="619.3" y2="716.6"/>
	<line class="st0" x1="626.9" y1="719.1" x2="626.9" y2="716.6"/>
	<line class="st0" x1="634.4" y1="719.1" x2="634.4" y2="716.6"/>
	<line class="st0" x1="642" y1="719.1" x2="642" y2="716.6"/>
	<line class="st0" x1="649.5" y1="719.1" x2="649.5" y2="716.6"/>
	<line class="st0" x1="657.1" y1="719.1" x2="657.1" y2="716.6"/>
	<line class="st0" x1="664.6" y1="719.1" x2="664.6" y2="716.6"/>
	<line class="st0" x1="672.2" y1="719.1" x2="672.2" y2="716.6"/>
	<line class="st0" x1="679.7" y1="719.1" x2="679.7" y2="716.6"/>
	<line class="st0" x1="687.3" y1="719.1" x2="687.3" y2="716.6"/>
	<line class="st0" x1="694.8" y1="719.1" x2="694.8" y2="716.6"/>
	<line class="st0" x1="702.4" y1="719.1" x2="702.4" y2="716.6"/>
	<line class="st0" x1="709.9" y1="719.1" x2="709.9" y2="716.6"/>
	<line class="st0" x1="717.5" y1="719.1" x2="717.5" y2="716.6"/>
	<line class="st0" x1="725" y1="719.1" x2="725" y2="716.6"/>
	<line class="st0" x1="732.5" y1="719.1" x2="732.5" y2="716.6"/>
	<line class="st0" x1="740.1" y1="719.1" x2="740.1" y2="716.6"/>
	<line class="st0" x1="747.6" y1="719.1" x2="747.6" y2="716.6"/>
	<line class="st0" x1="755.2" y1="719.1" x2="755.2" y2="716.6"/>
	<line class="st0" x1="762.7" y1="719.1" x2="762.7" y2="716.6"/>
	<line class="st0" x1="770.3" y1="719.1" x2="770.3" y2="716.6"/>
	<line class="st0" x1="777.8" y1="719.1" x2="777.8" y2="716.6"/>
	<line class="st0" x1="785.4" y1="719.1" x2="785.4" y2="716.6"/>
	<line class="st0" x1="792.9" y1="719.1" x2="792.9" y2="716.6"/>
	<line class="st0" x1="800.5" y1="719.1" x2="800.5" y2="716.6"/>
	<line class="st0" x1="808" y1="719.1" x2="808" y2="716.6"/>
	<polygon class="st0" points="596.7,992.4 600.5,996.2 600.5,999.6 596.7,1003.4 592.9,999.6 592.9,996.2 	"/>
	<line class="st0" x1="596.7" y1="989.9" x2="596.7" y2="992.4"/>
	<polyline class="st0" points="592.9,996.2 589.2,992.4 589.2,989.9 592.9,986.2 	"/>
	<polyline class="st0" points="600.5,996.2 604.3,992.4 608,996.2 608,999.6 604.3,1003.4 600.5,999.6 	"/>
	<polyline class="st0" points="608,996.2 611.8,992.4 615.6,996.2 615.6,999.6 611.8,1003.4 608,999.6 	"/>
	<polyline class="st0" points="615.6,996.2 619.3,992.4 623.1,996.2 623.1,999.6 619.3,1003.4 615.6,999.6 	"/>
	<polyline class="st0" points="623.1,996.2 626.9,992.4 630.7,996.2 630.7,999.6 626.9,1003.4 623.1,999.6 	"/>
	<polyline class="st0" points="630.7,996.2 634.4,992.4 638.2,996.2 638.2,999.6 634.4,1003.4 630.7,999.6 	"/>
	<polyline class="st0" points="638.2,996.2 642,992.4 645.8,996.2 645.8,999.6 642,1003.4 638.2,999.6 	"/>
	<polyline class="st0" points="645.8,996.2 649.5,992.4 653.3,996.2 653.3,999.6 649.5,1003.4 645.8,999.6 	"/>
	<polyline class="st0" points="653.3,996.2 657.1,992.4 660.9,996.2 660.9,999.6 657.1,1003.4 653.3,999.6 	"/>
	<polyline class="st0" points="660.9,996.2 664.6,992.4 668.4,996.2 668.4,999.6 664.6,1003.4 660.9,999.6 	"/>
	<polyline class="st0" points="668.4,996.2 672.2,992.4 675.9,996.2 675.9,999.6 672.2,1003.4 668.4,999.6 	"/>
	<polyline class="st0" points="675.9,996.2 679.7,992.4 683.5,996.2 683.5,999.6 679.7,1003.4 675.9,999.6 	"/>
	<polyline class="st0" points="683.5,996.2 687.3,992.4 691,996.2 691,999.6 687.3,1003.4 683.5,999.6 	"/>
	<polyline class="st0" points="691,996.2 694.8,992.4 698.6,996.2 698.6,999.6 694.8,1003.4 691,999.6 	"/>
	<polyline class="st0" points="698.6,996.2 702.4,992.4 706.1,996.2 706.1,999.6 702.4,1003.4 698.6,999.6 	"/>
	<polyline class="st0" points="706.1,996.2 709.9,992.4 713.7,996.2 713.7,999.6 709.9,1003.4 706.1,999.6 	"/>
	<polyline class="st0" points="713.7,996.2 717.5,992.4 721.2,996.2 721.2,999.6 717.5,1003.4 713.7,999.6 	"/>
	<polyline class="st0" points="721.2,996.2 725,992.4 728.8,996.2 728.8,999.6 725,1003.4 721.2,999.6 	"/>
	<polyline class="st0" points="728.8,996.2 732.5,992.4 736.3,996.2 736.3,999.6 732.5,1003.4 728.8,999.6 	"/>
	<polyline class="st0" points="736.3,996.2 740.1,992.4 743.9,996.2 743.9,999.6 740.1,1003.4 736.3,999.6 	"/>
	<polyline class="st0" points="743.9,996.2 747.6,992.4 751.4,996.2 751.4,999.6 747.6,1003.4 743.9,999.6 	"/>
	<polyline class="st0" points="751.4,996.2 755.2,992.4 759,996.2 759,999.6 755.2,1003.4 751.4,999.6 	"/>
	<polyline class="st0" points="759,996.2 762.7,992.4 766.5,996.2 766.5,999.6 762.7,1003.4 759,999.6 	"/>
	<polyline class="st0" points="766.5,996.2 770.3,992.4 774,996.2 774,999.6 770.3,1003.4 766.5,999.6 	"/>
	<polyline class="st0" points="774,996.2 777.8,992.4 781.6,996.2 781.6,999.6 777.8,1003.4 774,999.6 	"/>
	<polyline class="st0" points="781.6,996.2 785.4,992.4 789.1,996.2 789.1,999.6 785.4,1003.4 781.6,999.6 	"/>
	<polyline class="st0" points="789.1,996.2 792.9,992.4 796.7,996.2 796.7,999.6 792.9,1003.4 789.1,999.6 	"/>
	<polyline class="st0" points="796.7,996.2 800.5,992.4 804.2,996.2 804.2,999.6 800.5,1003.4 796.7,999.6 	"/>
	<polyline class="st0" points="804.2,996.2 808,992.4 811.8,996.2 811.8,999.6 808,1003.4 804.2,999.6 	"/>
	<line class="st0" x1="596.7" y1="992.4" x2="596.7" y2="989.9"/>
	<line class="st0" x1="604.3" y1="992.4" x2="604.3" y2="989.9"/>
	<line class="st0" x1="611.8" y1="992.4" x2="611.8" y2="989.9"/>
	<line class="st0" x1="619.3" y1="992.4" x2="619.3" y2="989.9"/>
	<line class="st0" x1="626.9" y1="992.4" x2="626.9" y2="989.9"/>
	<line class="st0" x1="634.4" y1="992.4" x2="634.4" y2="989.9"/>
	<line class="st0" x1="642" y1="992.4" x2="642" y2="989.9"/>
	<line class="st0" x1="649.5" y1="992.4" x2="649.5" y2="989.9"/>
	<line class="st0" x1="657.1" y1="992.4" x2="657.1" y2="989.9"/>
	<line class="st0" x1="664.6" y1="992.4" x2="664.6" y2="989.9"/>
	<line class="st0" x1="672.2" y1="992.4" x2="672.2" y2="989.9"/>
	<line class="st0" x1="679.7" y1="992.4" x2="679.7" y2="989.9"/>
	<line class="st0" x1="687.3" y1="992.4" x2="687.3" y2="989.9"/>
	<line class="st0" x1="694.8" y1="992.4" x2="694.8" y2="989.9"/>
	<line class="st0" x1="702.4" y1="992.4" x2="702.4" y2="989.9"/>
	<line class="st0" x1="709.9" y1="992.4" x2="709.9" y2="989.9"/>
	<line class="st0" x1="717.5" y1="992.4" x2="717.5" y2="989.9"/>
	<line class="st0" x1="725" y1="992.4" x2="725" y2="989.9"/>
	<line class="st0" x1="732.5" y1="992.4" x2="732.5" y2="989.9"/>
	<line class="st0" x1="740.1" y1="992.4" x2="740.1" y2="989.9"/>
	<line class="st0" x1="747.6" y1="992.4" x2="747.6" y2="989.9"/>
	<line class="st0" x1="755.2" y1="992.4" x2="755.2" y2="989.9"/>
	<line class="st0" x1="762.7" y1="992.4" x2="762.7" y2="989.9"/>
	<line class="st0" x1="770.3" y1="992.4" x2="770.3" y2="989.9"/>
	<line class="st0" x1="777.8" y1="992.4" x2="777.8" y2="989.9"/>
	<line class="st0" x1="785.4" y1="992.4" x2="785.4" y2="989.9"/>
	<line class="st0" x1="792.9" y1="992.4" x2="792.9" y2="989.9"/>
	<line class="st0" x1="800.5" y1="992.4" x2="800.5" y2="989.9"/>
	<line class="st0" x1="808" y1="992.4" x2="808" y2="989.9"/>
	<polygon class="st0" points="600.5,739.8 604.3,743.5 604.3,747 600.5,750.8 596.7,747 596.7,743.5 	"/>
	<polyline class="st0" points="592.9,750.8 589.2,747 589.2,743.5 592.9,739.8 	"/>
	<line class="st0" x1="600.5" y1="737.3" x2="600.5" y2="739.7"/>
	<polyline class="st0" points="596.7,743.5 592.9,739.7 592.9,737.3 	"/>
	<polyline class="st0" points="604.3,743.5 608,739.8 611.8,743.5 611.8,747 608,750.8 604.3,747 	"/>
	<polyline class="st0" points="611.8,743.5 615.6,739.8 619.3,743.5 619.3,747 615.6,750.8 611.8,747 	"/>
	<polyline class="st0" points="619.3,743.5 623.1,739.8 626.9,743.5 626.9,747 623.1,750.8 619.3,747 	"/>
	<polyline class="st0" points="626.9,743.5 630.7,739.8 634.4,743.5 634.4,747 630.7,750.8 626.9,747 	"/>
	<polyline class="st0" points="634.4,743.5 638.2,739.8 642,743.5 642,747 638.2,750.8 634.4,747 	"/>
	<polyline class="st0" points="642,743.5 645.8,739.8 649.5,743.5 649.5,747 645.8,750.8 642,747 	"/>
	<polyline class="st0" points="649.5,743.5 653.3,739.8 657.1,743.5 657.1,747 653.3,750.8 649.5,747 	"/>
	<polyline class="st0" points="657.1,743.5 660.9,739.8 664.6,743.5 664.6,747 660.9,750.8 657.1,747 	"/>
	<polyline class="st0" points="664.6,743.5 668.4,739.8 672.2,743.5 672.2,747 668.4,750.8 664.6,747 	"/>
	<polyline class="st0" points="672.2,743.5 675.9,739.8 679.7,743.5 679.7,747 675.9,750.8 672.2,747 	"/>
	<polyline class="st0" points="679.7,743.5 683.5,739.8 687.3,743.5 687.3,747 683.5,750.8 679.7,747 	"/>
	<polyline class="st0" points="687.3,743.5 691,739.8 694.8,743.5 694.8,747 691,750.8 687.3,747 	"/>
	<polyline class="st0" points="694.8,743.5 698.6,739.8 702.4,743.5 702.4,747 698.6,750.8 694.8,747 	"/>
	<polyline class="st0" points="702.4,743.5 706.1,739.8 709.9,743.5 709.9,747 706.1,750.8 702.4,747 	"/>
	<polyline class="st0" points="709.9,743.5 713.7,739.8 717.5,743.5 717.5,747 713.7,750.8 709.9,747 	"/>
	<polyline class="st0" points="717.5,743.5 721.2,739.8 725,743.5 725,747 721.2,750.8 717.5,747 	"/>
	<polyline class="st0" points="725,743.5 728.8,739.8 732.5,743.5 732.5,747 728.8,750.8 725,747 	"/>
	<polyline class="st0" points="732.5,743.5 736.3,739.8 740.1,743.5 740.1,747 736.3,750.8 732.5,747 	"/>
	<polyline class="st0" points="740.1,743.5 743.9,739.8 747.6,743.5 747.6,747 743.9,750.8 740.1,747 	"/>
	<polyline class="st0" points="747.6,743.5 751.4,739.8 755.2,743.5 755.2,747 751.4,750.8 747.6,747 	"/>
	<polyline class="st0" points="755.2,743.5 759,739.8 762.7,743.5 762.7,747 759,750.8 755.2,747 	"/>
	<polyline class="st0" points="762.7,743.5 766.5,739.8 770.3,743.5 770.3,747 766.5,750.8 762.7,747 	"/>
	<polyline class="st0" points="770.3,743.5 774,739.8 777.8,743.5 777.8,747 774,750.8 770.3,747 	"/>
	<polyline class="st0" points="777.8,743.5 781.6,739.8 785.4,743.5 785.4,747 781.6,750.8 777.8,747 	"/>
	<polyline class="st0" points="785.4,743.5 789.1,739.8 792.9,743.5 792.9,747 789.1,750.8 785.4,747 	"/>
	<polyline class="st0" points="792.9,743.5 796.7,739.8 800.5,743.5 800.5,747 796.7,750.8 792.9,747 	"/>
	<polyline class="st0" points="800.5,743.5 804.2,739.8 808,743.5 808,747 804.2,750.8 800.5,747 	"/>
	<line class="st0" x1="808" y1="743.5" x2="811.8" y2="739.8"/>
	<line class="st0" x1="600.5" y1="739.8" x2="600.5" y2="737.3"/>
	<line class="st0" x1="608" y1="739.8" x2="608" y2="737.3"/>
	<line class="st0" x1="615.6" y1="739.8" x2="615.6" y2="737.3"/>
	<line class="st0" x1="623.1" y1="739.8" x2="623.1" y2="737.3"/>
	<line class="st0" x1="630.7" y1="739.8" x2="630.7" y2="737.3"/>
	<line class="st0" x1="638.2" y1="739.8" x2="638.2" y2="737.3"/>
	<line class="st0" x1="645.8" y1="739.8" x2="645.8" y2="737.3"/>
	<line class="st0" x1="653.3" y1="739.8" x2="653.3" y2="737.3"/>
	<line class="st0" x1="660.9" y1="739.8" x2="660.9" y2="737.3"/>
	<line class="st0" x1="668.4" y1="739.8" x2="668.4" y2="737.3"/>
	<line class="st0" x1="675.9" y1="739.8" x2="675.9" y2="737.3"/>
	<line class="st0" x1="683.5" y1="739.8" x2="683.5" y2="737.3"/>
	<line class="st0" x1="691" y1="739.8" x2="691" y2="737.3"/>
	<line class="st0" x1="698.6" y1="739.8" x2="698.6" y2="737.3"/>
	<line class="st0" x1="706.1" y1="739.8" x2="706.1" y2="737.3"/>
	<line class="st0" x1="713.7" y1="739.8" x2="713.7" y2="737.3"/>
	<line class="st0" x1="721.2" y1="739.8" x2="721.2" y2="737.3"/>
	<line class="st0" x1="728.8" y1="739.8" x2="728.8" y2="737.3"/>
	<line class="st0" x1="736.3" y1="739.8" x2="736.3" y2="737.3"/>
	<line class="st0" x1="743.9" y1="739.8" x2="743.9" y2="737.3"/>
	<line class="st0" x1="751.4" y1="739.8" x2="751.4" y2="737.3"/>
	<line class="st0" x1="759" y1="739.8" x2="759" y2="737.3"/>
	<line class="st0" x1="766.5" y1="739.8" x2="766.5" y2="737.3"/>
	<line class="st0" x1="774" y1="739.8" x2="774" y2="737.3"/>
	<line class="st0" x1="781.6" y1="739.8" x2="781.6" y2="737.3"/>
	<line class="st0" x1="789.1" y1="739.8" x2="789.1" y2="737.3"/>
	<line class="st0" x1="796.7" y1="739.8" x2="796.7" y2="737.3"/>
	<line class="st0" x1="804.2" y1="739.8" x2="804.2" y2="737.3"/>
	<line class="st0" x1="811.8" y1="739.8" x2="811.8" y2="737.3"/>
	<polygon class="st0" points="592.9,753.2 596.7,757 596.7,760.4 592.9,764.2 589.2,760.4 589.2,757 	"/>
	<polyline class="st0" points="600.5,767.7 596.7,771.4 592.9,767.7 592.9,764.2 	"/>
	<line class="st0" x1="592.9" y1="767.7" x2="589.2" y2="771.4"/>
	<polyline class="st0" points="608,767.7 604.3,771.4 600.5,767.7 600.5,764.2 	"/>
	<polyline class="st0" points="615.6,767.7 611.8,771.4 608,767.7 608,764.2 	"/>
	<polyline class="st0" points="623.1,767.7 619.3,771.4 615.6,767.7 615.6,764.2 	"/>
	<polyline class="st0" points="630.7,767.7 626.9,771.4 623.1,767.7 623.1,764.2 	"/>
	<polyline class="st0" points="638.2,767.7 634.4,771.4 630.7,767.7 630.7,764.2 	"/>
	<polyline class="st0" points="645.8,767.7 642,771.4 638.2,767.7 638.2,764.2 	"/>
	<polyline class="st0" points="653.3,767.7 649.5,771.4 645.8,767.7 645.8,764.2 	"/>
	<polyline class="st0" points="660.9,767.7 657.1,771.4 653.3,767.7 653.3,764.2 	"/>
	<polyline class="st0" points="668.4,767.7 664.6,771.4 660.9,767.7 660.9,764.2 	"/>
	<polyline class="st0" points="675.9,767.7 672.2,771.4 668.4,767.7 668.4,764.2 	"/>
	<polyline class="st0" points="683.5,767.7 679.7,771.4 675.9,767.7 675.9,764.2 	"/>
	<polyline class="st0" points="691,767.7 687.3,771.4 683.5,767.7 683.5,764.2 	"/>
	<polyline class="st0" points="698.6,767.7 694.8,771.4 691,767.7 691,764.2 	"/>
	<polyline class="st0" points="706.1,767.7 702.4,771.4 698.6,767.7 698.6,764.2 	"/>
	<polyline class="st0" points="713.7,767.7 709.9,771.4 706.1,767.7 706.1,764.2 	"/>
	<polyline class="st0" points="721.2,767.7 717.5,771.4 713.7,767.7 713.7,764.2 	"/>
	<polyline class="st0" points="728.8,767.7 725,771.4 721.2,767.7 721.2,764.2 	"/>
	<polyline class="st0" points="736.3,767.7 732.5,771.4 728.8,767.7 728.8,764.2 	"/>
	<polyline class="st0" points="743.9,767.7 740.1,771.4 736.3,767.7 736.3,764.2 	"/>
	<polyline class="st0" points="751.4,767.7 747.6,771.4 743.9,767.7 743.9,764.2 	"/>
	<polyline class="st0" points="759,767.7 755.2,771.4 751.4,767.7 751.4,764.2 	"/>
	<polyline class="st0" points="766.5,767.7 762.7,771.4 759,767.7 759,764.2 	"/>
	<polyline class="st0" points="774,767.7 770.3,771.4 766.5,767.7 766.5,764.2 	"/>
	<polyline class="st0" points="781.6,767.7 777.8,771.4 774,767.7 774,764.2 	"/>
	<polyline class="st0" points="789.1,767.7 785.4,771.4 781.6,767.7 781.6,764.2 	"/>
	<polyline class="st0" points="796.7,767.7 792.9,771.4 789.1,767.7 789.1,764.2 	"/>
	<polyline class="st0" points="804.2,767.7 800.5,771.4 796.7,767.7 796.7,764.2 	"/>
	<line class="st0" x1="592.9" y1="750.7" x2="592.9" y2="753.2"/>
	<polyline class="st0" points="596.7,757 600.5,753.2 604.3,757 604.3,760.4 600.5,764.2 596.7,760.4 	"/>
	<polyline class="st0" points="604.3,757 608,753.2 611.8,757 611.8,760.4 608,764.2 604.3,760.4 	"/>
	<polyline class="st0" points="611.8,757 615.6,753.2 619.3,757 619.3,760.4 615.6,764.2 611.8,760.4 	"/>
	<polyline class="st0" points="619.3,757 623.1,753.2 626.9,757 626.9,760.4 623.1,764.2 619.3,760.4 	"/>
	<polyline class="st0" points="626.9,757 630.7,753.2 634.4,757 634.4,760.4 630.7,764.2 626.9,760.4 	"/>
	<polyline class="st0" points="634.4,757 638.2,753.2 642,757 642,760.4 638.2,764.2 634.4,760.4 	"/>
	<polyline class="st0" points="642,757 645.8,753.2 649.5,757 649.5,760.4 645.8,764.2 642,760.4 	"/>
	<polyline class="st0" points="649.5,757 653.3,753.2 657.1,757 657.1,760.4 653.3,764.2 649.5,760.4 	"/>
	<polyline class="st0" points="657.1,757 660.9,753.2 664.6,757 664.6,760.4 660.9,764.2 657.1,760.4 	"/>
	<polyline class="st0" points="664.6,757 668.4,753.2 672.2,757 672.2,760.4 668.4,764.2 664.6,760.4 	"/>
	<polyline class="st0" points="672.2,757 675.9,753.2 679.7,757 679.7,760.4 675.9,764.2 672.2,760.4 	"/>
	<polyline class="st0" points="679.7,757 683.5,753.2 687.3,757 687.3,760.4 683.5,764.2 679.7,760.4 	"/>
	<polyline class="st0" points="687.3,757 691,753.2 694.8,757 694.8,760.4 691,764.2 687.3,760.4 	"/>
	<polyline class="st0" points="694.8,757 698.6,753.2 702.4,757 702.4,760.4 698.6,764.2 694.8,760.4 	"/>
	<polyline class="st0" points="702.4,757 706.1,753.2 709.9,757 709.9,760.4 706.1,764.2 702.4,760.4 	"/>
	<polyline class="st0" points="709.9,757 713.7,753.2 717.5,757 717.5,760.4 713.7,764.2 709.9,760.4 	"/>
	<polyline class="st0" points="717.5,757 721.2,753.2 725,757 725,760.4 721.2,764.2 717.5,760.4 	"/>
	<polyline class="st0" points="725,757 728.8,753.2 732.5,757 732.5,760.4 728.8,764.2 725,760.4 	"/>
	<polyline class="st0" points="732.5,757 736.3,753.2 740.1,757 740.1,760.4 736.3,764.2 732.5,760.4 	"/>
	<polyline class="st0" points="740.1,757 743.9,753.2 747.6,757 747.6,760.4 743.9,764.2 740.1,760.4 	"/>
	<polyline class="st0" points="747.6,757 751.4,753.2 755.2,757 755.2,760.4 751.4,764.2 747.6,760.4 	"/>
	<polyline class="st0" points="755.2,757 759,753.2 762.7,757 762.7,760.4 759,764.2 755.2,760.4 	"/>
	<polyline class="st0" points="762.7,757 766.5,753.2 770.3,757 770.3,760.4 766.5,764.2 762.7,760.4 	"/>
	<polyline class="st0" points="770.3,757 774,753.2 777.8,757 777.8,760.4 774,764.2 770.3,760.4 	"/>
	<polyline class="st0" points="777.8,757 781.6,753.2 785.4,757 785.4,760.4 781.6,764.2 777.8,760.4 	"/>
	<polyline class="st0" points="785.4,757 789.1,753.2 792.9,757 792.9,760.4 789.1,764.2 785.4,760.4 	"/>
	<polyline class="st0" points="792.9,757 796.7,753.2 800.5,757 800.5,760.4 796.7,764.2 792.9,760.4 	"/>
	<polyline class="st0" points="800.5,757 804.2,753.2 808,757 808,760.4 804.2,764.2 800.5,760.4 	"/>
	<polyline class="st0" points="592.9,753.2 592.9,750.7 596.7,747 	"/>
	<line class="st0" x1="600.5" y1="753.2" x2="600.5" y2="750.7"/>
	<line class="st0" x1="608" y1="753.2" x2="608" y2="750.7"/>
	<line class="st0" x1="615.6" y1="753.2" x2="615.6" y2="750.7"/>
	<line class="st0" x1="623.1" y1="753.2" x2="623.1" y2="750.7"/>
	<line class="st0" x1="630.7" y1="753.2" x2="630.7" y2="750.7"/>
	<line class="st0" x1="638.2" y1="753.2" x2="638.2" y2="750.7"/>
	<line class="st0" x1="645.8" y1="753.2" x2="645.8" y2="750.7"/>
	<line class="st0" x1="653.3" y1="753.2" x2="653.3" y2="750.7"/>
	<line class="st0" x1="660.9" y1="753.2" x2="660.9" y2="750.7"/>
	<line class="st0" x1="668.4" y1="753.2" x2="668.4" y2="750.7"/>
	<line class="st0" x1="675.9" y1="753.2" x2="675.9" y2="750.7"/>
	<line class="st0" x1="683.5" y1="753.2" x2="683.5" y2="750.7"/>
	<line class="st0" x1="691" y1="753.2" x2="691" y2="750.7"/>
	<line class="st0" x1="698.6" y1="753.2" x2="698.6" y2="750.7"/>
	<line class="st0" x1="706.1" y1="753.2" x2="706.1" y2="750.7"/>
	<line class="st0" x1="713.7" y1="753.2" x2="713.7" y2="750.7"/>
	<line class="st0" x1="721.2" y1="753.2" x2="721.2" y2="750.7"/>
	<line class="st0" x1="728.8" y1="753.2" x2="728.8" y2="750.7"/>
	<line class="st0" x1="736.3" y1="753.2" x2="736.3" y2="750.7"/>
	<line class="st0" x1="743.9" y1="753.2" x2="743.9" y2="750.7"/>
	<line class="st0" x1="751.4" y1="753.2" x2="751.4" y2="750.7"/>
	<line class="st0" x1="759" y1="753.2" x2="759" y2="750.7"/>
	<line class="st0" x1="766.5" y1="753.2" x2="766.5" y2="750.7"/>
	<line class="st0" x1="774" y1="753.2" x2="774" y2="750.7"/>
	<line class="st0" x1="781.6" y1="753.2" x2="781.6" y2="750.7"/>
	<line class="st0" x1="789.1" y1="753.2" x2="789.1" y2="750.7"/>
	<line class="st0" x1="796.7" y1="753.2" x2="796.7" y2="750.7"/>
	<line class="st0" x1="804.2" y1="753.2" x2="804.2" y2="750.7"/>
	<polygon class="st0" points="596.7,773.9 600.5,777.7 600.5,781.1 596.7,784.9 592.9,781.1 592.9,777.7 	"/>
	<line class="st0" x1="596.7" y1="771.4" x2="596.7" y2="773.9"/>
	<polyline class="st0" points="592.9,777.7 589.2,773.9 589.2,771.4 	"/>
	<polyline class="st0" points="600.5,777.7 604.3,773.9 608,777.7 608,781.1 604.3,784.9 600.5,781.1 	"/>
	<polyline class="st0" points="608,777.7 611.8,773.9 615.6,777.7 615.6,781.1 611.8,784.9 608,781.1 	"/>
	<polyline class="st0" points="615.6,777.7 619.3,773.9 623.1,777.7 623.1,781.1 619.3,784.9 615.6,781.1 	"/>
	<polyline class="st0" points="623.1,777.7 626.9,773.9 630.7,777.7 630.7,781.1 626.9,784.9 623.1,781.1 	"/>
	<polyline class="st0" points="630.7,777.7 634.4,773.9 638.2,777.7 638.2,781.1 634.4,784.9 630.7,781.1 	"/>
	<polyline class="st0" points="638.2,777.7 642,773.9 645.8,777.7 645.8,781.1 642,784.9 638.2,781.1 	"/>
	<polyline class="st0" points="645.8,777.7 649.5,773.9 653.3,777.7 653.3,781.1 649.5,784.9 645.8,781.1 	"/>
	<polyline class="st0" points="653.3,777.7 657.1,773.9 660.9,777.7 660.9,781.1 657.1,784.9 653.3,781.1 	"/>
	<polyline class="st0" points="660.9,777.7 664.6,773.9 668.4,777.7 668.4,781.1 664.6,784.9 660.9,781.1 	"/>
	<polyline class="st0" points="668.4,777.7 672.2,773.9 675.9,777.7 675.9,781.1 672.2,784.9 668.4,781.1 	"/>
	<polyline class="st0" points="675.9,777.7 679.7,773.9 683.5,777.7 683.5,781.1 679.7,784.9 675.9,781.1 	"/>
	<polyline class="st0" points="683.5,777.7 687.3,773.9 691,777.7 691,781.1 687.3,784.9 683.5,781.1 	"/>
	<polyline class="st0" points="691,777.7 694.8,773.9 698.6,777.7 698.6,781.1 694.8,784.9 691,781.1 	"/>
	<polyline class="st0" points="698.6,777.7 702.4,773.9 706.1,777.7 706.1,781.1 702.4,784.9 698.6,781.1 	"/>
	<polyline class="st0" points="706.1,777.7 709.9,773.9 713.7,777.7 713.7,781.1 709.9,784.9 706.1,781.1 	"/>
	<polyline class="st0" points="713.7,777.7 717.5,773.9 721.2,777.7 721.2,781.1 717.5,784.9 713.7,781.1 	"/>
	<polyline class="st0" points="721.2,777.7 725,773.9 728.8,777.7 728.8,781.1 725,784.9 721.2,781.1 	"/>
	<polyline class="st0" points="728.8,777.7 732.5,773.9 736.3,777.7 736.3,781.1 732.5,784.9 728.8,781.1 	"/>
	<polyline class="st0" points="736.3,777.7 740.1,773.9 743.9,777.7 743.9,781.1 740.1,784.9 736.3,781.1 	"/>
	<polyline class="st0" points="743.9,777.7 747.6,773.9 751.4,777.7 751.4,781.1 747.6,784.9 743.9,781.1 	"/>
	<polyline class="st0" points="751.4,777.7 755.2,773.9 759,777.7 759,781.1 755.2,784.9 751.4,781.1 	"/>
	<polyline class="st0" points="759,777.7 762.7,773.9 766.5,777.7 766.5,781.1 762.7,784.9 759,781.1 	"/>
	<polyline class="st0" points="766.5,777.7 770.3,773.9 774,777.7 774,781.1 770.3,784.9 766.5,781.1 	"/>
	<polyline class="st0" points="774,777.7 777.8,773.9 781.6,777.7 781.6,781.1 777.8,784.9 774,781.1 	"/>
	<polyline class="st0" points="781.6,777.7 785.4,773.9 789.1,777.7 789.1,781.1 785.4,784.9 781.6,781.1 	"/>
	<polyline class="st0" points="789.1,777.7 792.9,773.9 796.7,777.7 796.7,781.1 792.9,784.9 789.1,781.1 	"/>
	<polyline class="st0" points="796.7,777.7 800.5,773.9 804.2,777.7 804.2,781.1 800.5,784.9 796.7,781.1 	"/>
	<polyline class="st0" points="804.2,777.7 808,773.9 811.8,777.7 811.8,781.1 808,784.9 804.2,781.1 	"/>
	<line class="st0" x1="596.7" y1="773.9" x2="596.7" y2="771.4"/>
	<line class="st0" x1="604.3" y1="773.9" x2="604.3" y2="771.4"/>
	<line class="st0" x1="611.8" y1="773.9" x2="611.8" y2="771.4"/>
	<line class="st0" x1="619.3" y1="773.9" x2="619.3" y2="771.4"/>
	<line class="st0" x1="626.9" y1="773.9" x2="626.9" y2="771.4"/>
	<line class="st0" x1="634.4" y1="773.9" x2="634.4" y2="771.4"/>
	<line class="st0" x1="642" y1="773.9" x2="642" y2="771.4"/>
	<line class="st0" x1="649.5" y1="773.9" x2="649.5" y2="771.4"/>
	<line class="st0" x1="657.1" y1="773.9" x2="657.1" y2="771.4"/>
	<line class="st0" x1="664.6" y1="773.9" x2="664.6" y2="771.4"/>
	<line class="st0" x1="672.2" y1="773.9" x2="672.2" y2="771.4"/>
	<line class="st0" x1="679.7" y1="773.9" x2="679.7" y2="771.4"/>
	<line class="st0" x1="687.3" y1="773.9" x2="687.3" y2="771.4"/>
	<line class="st0" x1="694.8" y1="773.9" x2="694.8" y2="771.4"/>
	<line class="st0" x1="702.4" y1="773.9" x2="702.4" y2="771.4"/>
	<line class="st0" x1="709.9" y1="773.9" x2="709.9" y2="771.4"/>
	<line class="st0" x1="717.5" y1="773.9" x2="717.5" y2="771.4"/>
	<line class="st0" x1="725" y1="773.9" x2="725" y2="771.4"/>
	<line class="st0" x1="732.5" y1="773.9" x2="732.5" y2="771.4"/>
	<line class="st0" x1="740.1" y1="773.9" x2="740.1" y2="771.4"/>
	<line class="st0" x1="747.6" y1="773.9" x2="747.6" y2="771.4"/>
	<line class="st0" x1="755.2" y1="773.9" x2="755.2" y2="771.4"/>
	<line class="st0" x1="762.7" y1="773.9" x2="762.7" y2="771.4"/>
	<line class="st0" x1="770.3" y1="773.9" x2="770.3" y2="771.4"/>
	<line class="st0" x1="777.8" y1="773.9" x2="777.8" y2="771.4"/>
	<line class="st0" x1="785.4" y1="773.9" x2="785.4" y2="771.4"/>
	<line class="st0" x1="792.9" y1="773.9" x2="792.9" y2="771.4"/>
	<line class="st0" x1="800.5" y1="773.9" x2="800.5" y2="771.4"/>
	<line class="st0" x1="808" y1="773.9" x2="808" y2="771.4"/>
	<polygon class="st0" points="596.7,787.4 600.5,791.2 600.5,794.6 596.7,798.4 592.9,794.6 592.9,791.2 	"/>
	<polyline class="st0" points="604.3,801.8 600.5,805.6 596.7,801.8 596.7,798.4 	"/>
	<polyline class="st0" points="596.7,801.8 592.9,805.6 589.2,801.8 589.2,798.4 592.9,794.6 	"/>
	<polyline class="st0" points="611.8,801.8 608,805.6 604.3,801.8 604.3,798.4 	"/>
	<polyline class="st0" points="619.3,801.8 615.6,805.6 611.8,801.8 611.8,798.4 	"/>
	<polyline class="st0" points="626.9,801.8 623.1,805.6 619.3,801.8 619.3,798.4 	"/>
	<polyline class="st0" points="634.4,801.8 630.7,805.6 626.9,801.8 626.9,798.4 	"/>
	<polyline class="st0" points="642,801.8 638.2,805.6 634.4,801.8 634.4,798.4 	"/>
	<polyline class="st0" points="649.5,801.8 645.8,805.6 642,801.8 642,798.4 	"/>
	<polyline class="st0" points="657.1,801.8 653.3,805.6 649.5,801.8 649.5,798.4 	"/>
	<polyline class="st0" points="664.6,801.8 660.9,805.6 657.1,801.8 657.1,798.4 	"/>
	<polyline class="st0" points="672.2,801.8 668.4,805.6 664.6,801.8 664.6,798.4 	"/>
	<polyline class="st0" points="679.7,801.8 675.9,805.6 672.2,801.8 672.2,798.4 	"/>
	<polyline class="st0" points="687.3,801.8 683.5,805.6 679.7,801.8 679.7,798.4 	"/>
	<polyline class="st0" points="694.8,801.8 691,805.6 687.3,801.8 687.3,798.4 	"/>
	<polyline class="st0" points="702.4,801.8 698.6,805.6 694.8,801.8 694.8,798.4 	"/>
	<polyline class="st0" points="709.9,801.8 706.1,805.6 702.4,801.8 702.4,798.4 	"/>
	<polyline class="st0" points="717.5,801.8 713.7,805.6 709.9,801.8 709.9,798.4 	"/>
	<polyline class="st0" points="725,801.8 721.2,805.6 717.5,801.8 717.5,798.4 	"/>
	<polyline class="st0" points="732.5,801.8 728.8,805.6 725,801.8 725,798.4 	"/>
	<polyline class="st0" points="740.1,801.8 736.3,805.6 732.5,801.8 732.5,798.4 	"/>
	<polyline class="st0" points="747.6,801.8 743.9,805.6 740.1,801.8 740.1,798.4 	"/>
	<polyline class="st0" points="755.2,801.8 751.4,805.6 747.6,801.8 747.6,798.4 	"/>
	<polyline class="st0" points="762.7,801.8 759,805.6 755.2,801.8 755.2,798.4 	"/>
	<polyline class="st0" points="770.3,801.8 766.5,805.6 762.7,801.8 762.7,798.4 	"/>
	<polyline class="st0" points="777.8,801.8 774,805.6 770.3,801.8 770.3,798.4 	"/>
	<polyline class="st0" points="785.4,801.8 781.6,805.6 777.8,801.8 777.8,798.4 	"/>
	<polyline class="st0" points="792.9,801.8 789.1,805.6 785.4,801.8 785.4,798.4 	"/>
	<polyline class="st0" points="800.5,801.8 796.7,805.6 792.9,801.8 792.9,798.4 	"/>
	<polyline class="st0" points="808,801.8 804.2,805.6 800.5,801.8 800.5,798.4 	"/>
	<polyline class="st0" points="811.8,805.6 808,801.8 808,798.4 	"/>
	<line class="st0" x1="596.7" y1="784.9" x2="596.7" y2="787.4"/>
	<polyline class="st0" points="592.9,791.2 589.2,787.4 589.2,784.9 592.9,781.1 	"/>
	<polyline class="st0" points="600.5,791.2 604.3,787.4 608,791.2 608,794.6 604.3,798.4 600.5,794.6 	"/>
	<polyline class="st0" points="608,791.2 611.8,787.4 615.6,791.2 615.6,794.6 611.8,798.4 608,794.6 	"/>
	<polyline class="st0" points="615.6,791.2 619.3,787.4 623.1,791.2 623.1,794.6 619.3,798.4 615.6,794.6 	"/>
	<polyline class="st0" points="623.1,791.2 626.9,787.4 630.7,791.2 630.7,794.6 626.9,798.4 623.1,794.6 	"/>
	<polyline class="st0" points="630.7,791.2 634.4,787.4 638.2,791.2 638.2,794.6 634.4,798.4 630.7,794.6 	"/>
	<polyline class="st0" points="638.2,791.2 642,787.4 645.8,791.2 645.8,794.6 642,798.4 638.2,794.6 	"/>
	<polyline class="st0" points="645.8,791.2 649.5,787.4 653.3,791.2 653.3,794.6 649.5,798.4 645.8,794.6 	"/>
	<polyline class="st0" points="653.3,791.2 657.1,787.4 660.9,791.2 660.9,794.6 657.1,798.4 653.3,794.6 	"/>
	<polyline class="st0" points="660.9,791.2 664.6,787.4 668.4,791.2 668.4,794.6 664.6,798.4 660.9,794.6 	"/>
	<polyline class="st0" points="668.4,791.2 672.2,787.4 675.9,791.2 675.9,794.6 672.2,798.4 668.4,794.6 	"/>
	<polyline class="st0" points="675.9,791.2 679.7,787.4 683.5,791.2 683.5,794.6 679.7,798.4 675.9,794.6 	"/>
	<polyline class="st0" points="683.5,791.2 687.3,787.4 691,791.2 691,794.6 687.3,798.4 683.5,794.6 	"/>
	<polyline class="st0" points="691,791.2 694.8,787.4 698.6,791.2 698.6,794.6 694.8,798.4 691,794.6 	"/>
	<polyline class="st0" points="698.6,791.2 702.4,787.4 706.1,791.2 706.1,794.6 702.4,798.4 698.6,794.6 	"/>
	<polyline class="st0" points="706.1,791.2 709.9,787.4 713.7,791.2 713.7,794.6 709.9,798.4 706.1,794.6 	"/>
	<polyline class="st0" points="713.7,791.2 717.5,787.4 721.2,791.2 721.2,794.6 717.5,798.4 713.7,794.6 	"/>
	<polyline class="st0" points="721.2,791.2 725,787.4 728.8,791.2 728.8,794.6 725,798.4 721.2,794.6 	"/>
	<polyline class="st0" points="728.8,791.2 732.5,787.4 736.3,791.2 736.3,794.6 732.5,798.4 728.8,794.6 	"/>
	<polyline class="st0" points="736.3,791.2 740.1,787.4 743.9,791.2 743.9,794.6 740.1,798.4 736.3,794.6 	"/>
	<polyline class="st0" points="743.9,791.2 747.6,787.4 751.4,791.2 751.4,794.6 747.6,798.4 743.9,794.6 	"/>
	<polyline class="st0" points="751.4,791.2 755.2,787.4 759,791.2 759,794.6 755.2,798.4 751.4,794.6 	"/>
	<polyline class="st0" points="759,791.2 762.7,787.4 766.5,791.2 766.5,794.6 762.7,798.4 759,794.6 	"/>
	<polyline class="st0" points="766.5,791.2 770.3,787.4 774,791.2 774,794.6 770.3,798.4 766.5,794.6 	"/>
	<polyline class="st0" points="774,791.2 777.8,787.4 781.6,791.2 781.6,794.6 777.8,798.4 774,794.6 	"/>
	<polyline class="st0" points="781.6,791.2 785.4,787.4 789.1,791.2 789.1,794.6 785.4,798.4 781.6,794.6 	"/>
	<polyline class="st0" points="789.1,791.2 792.9,787.4 796.7,791.2 796.7,794.6 792.9,798.4 789.1,794.6 	"/>
	<polyline class="st0" points="796.7,791.2 800.5,787.4 804.2,791.2 804.2,794.6 800.5,798.4 796.7,794.6 	"/>
	<polyline class="st0" points="804.2,791.2 808,787.4 811.8,791.2 811.8,794.6 808,798.4 804.2,794.6 	"/>
	<line class="st0" x1="596.7" y1="787.4" x2="596.7" y2="784.9"/>
	<line class="st0" x1="604.3" y1="787.4" x2="604.3" y2="784.9"/>
	<line class="st0" x1="611.8" y1="787.4" x2="611.8" y2="784.9"/>
	<line class="st0" x1="619.3" y1="787.4" x2="619.3" y2="784.9"/>
	<line class="st0" x1="626.9" y1="787.4" x2="626.9" y2="784.9"/>
	<line class="st0" x1="634.4" y1="787.4" x2="634.4" y2="784.9"/>
	<line class="st0" x1="642" y1="787.4" x2="642" y2="784.9"/>
	<line class="st0" x1="649.5" y1="787.4" x2="649.5" y2="784.9"/>
	<line class="st0" x1="657.1" y1="787.4" x2="657.1" y2="784.9"/>
	<line class="st0" x1="664.6" y1="787.4" x2="664.6" y2="784.9"/>
	<line class="st0" x1="672.2" y1="787.4" x2="672.2" y2="784.9"/>
	<line class="st0" x1="679.7" y1="787.4" x2="679.7" y2="784.9"/>
	<line class="st0" x1="687.3" y1="787.4" x2="687.3" y2="784.9"/>
	<line class="st0" x1="694.8" y1="787.4" x2="694.8" y2="784.9"/>
	<line class="st0" x1="702.4" y1="787.4" x2="702.4" y2="784.9"/>
	<line class="st0" x1="709.9" y1="787.4" x2="709.9" y2="784.9"/>
	<line class="st0" x1="717.5" y1="787.4" x2="717.5" y2="784.9"/>
	<line class="st0" x1="725" y1="787.4" x2="725" y2="784.9"/>
	<line class="st0" x1="732.5" y1="787.4" x2="732.5" y2="784.9"/>
	<line class="st0" x1="740.1" y1="787.4" x2="740.1" y2="784.9"/>
	<line class="st0" x1="747.6" y1="787.4" x2="747.6" y2="784.9"/>
	<line class="st0" x1="755.2" y1="787.4" x2="755.2" y2="784.9"/>
	<line class="st0" x1="762.7" y1="787.4" x2="762.7" y2="784.9"/>
	<line class="st0" x1="770.3" y1="787.4" x2="770.3" y2="784.9"/>
	<line class="st0" x1="777.8" y1="787.4" x2="777.8" y2="784.9"/>
	<line class="st0" x1="785.4" y1="787.4" x2="785.4" y2="784.9"/>
	<line class="st0" x1="792.9" y1="787.4" x2="792.9" y2="784.9"/>
	<line class="st0" x1="800.5" y1="787.4" x2="800.5" y2="784.9"/>
	<line class="st0" x1="808" y1="787.4" x2="808" y2="784.9"/>
	<polyline class="st0" points="600.5,819.1 596.7,815.3 596.7,811.9 600.5,808.1 604.3,811.9 604.3,815.3 	"/>
	<polyline class="st0" points="592.9,819.1 589.2,815.3 589.2,811.9 592.9,808.1 	"/>
	<line class="st0" x1="600.5" y1="805.6" x2="600.5" y2="808.1"/>
	<polyline class="st0" points="596.7,811.9 592.9,808.1 592.9,805.6 	"/>
	<polyline class="st0" points="604.3,811.9 608,808.1 611.8,811.9 611.8,815.3 	"/>
	<polyline class="st0" points="619.3,811.9 623.1,808.1 626.9,811.9 626.9,815.3 	"/>
	<polyline class="st0" points="626.9,811.9 630.7,808.1 634.4,811.9 634.4,815.3 	"/>
	<polyline class="st0" points="634.4,811.9 638.2,808.1 642,811.9 642,815.3 	"/>
	<polyline class="st0" points="642,811.9 645.8,808.1 649.5,811.9 649.5,815.3 	"/>
	<polyline class="st0" points="649.5,811.9 653.3,808.1 657.1,811.9 657.1,815.3 	"/>
	<polyline class="st0" points="657.1,811.9 660.9,808.1 664.6,811.9 664.6,815.3 	"/>
	<polyline class="st0" points="664.6,811.9 668.4,808.1 672.2,811.9 672.2,815.3 	"/>
	<polyline class="st0" points="672.2,811.9 675.9,808.1 679.7,811.9 679.7,815.3 	"/>
	<polyline class="st0" points="679.7,811.9 683.5,808.1 687.3,811.9 687.3,815.3 	"/>
	<polyline class="st0" points="687.3,811.9 691,808.1 694.8,811.9 694.8,815.3 	"/>
	<polyline class="st0" points="694.8,811.9 698.6,808.1 702.4,811.9 702.4,815.3 	"/>
	<polyline class="st0" points="702.4,811.9 706.1,808.1 709.9,811.9 709.9,815.3 	"/>
	<polyline class="st0" points="709.9,811.9 713.7,808.1 717.5,811.9 717.5,815.3 	"/>
	<polyline class="st0" points="717.5,811.9 721.2,808.1 725,811.9 725,815.3 	"/>
	<polyline class="st0" points="725,811.9 728.8,808.1 732.5,811.9 732.5,815.3 	"/>
	<polyline class="st0" points="732.5,811.9 736.3,808.1 740.1,811.9 740.1,815.3 	"/>
	<polyline class="st0" points="740.1,811.9 743.9,808.1 747.6,811.9 747.6,815.3 	"/>
	<polyline class="st0" points="747.6,811.9 751.4,808.1 755.2,811.9 755.2,815.3 	"/>
	<polyline class="st0" points="755.2,811.9 759,808.1 762.7,811.9 762.7,815.3 	"/>
	<polyline class="st0" points="762.7,811.9 766.5,808.1 770.3,811.9 770.3,815.3 	"/>
	<polyline class="st0" points="770.3,811.9 774,808.1 777.8,811.9 777.8,815.3 	"/>
	<polyline class="st0" points="777.8,811.9 781.6,808.1 785.4,811.9 785.4,815.3 	"/>
	<polyline class="st0" points="785.4,811.9 789.1,808.1 792.9,811.9 792.9,815.3 	"/>
	<polyline class="st0" points="792.9,811.9 796.7,808.1 800.5,811.9 800.5,815.3 	"/>
	<polyline class="st0" points="800.5,811.9 804.2,808.1 808,811.9 808,815.3 	"/>
	<line class="st0" x1="808" y1="811.9" x2="811.8" y2="808.1"/>
	<line class="st0" x1="600.5" y1="808.1" x2="600.5" y2="805.6"/>
	<line class="st0" x1="608" y1="808.1" x2="608" y2="805.6"/>
	<line class="st0" x1="615.6" y1="808.1" x2="615.6" y2="805.6"/>
	<line class="st0" x1="623.1" y1="808.1" x2="623.1" y2="805.6"/>
	<line class="st0" x1="630.7" y1="808.1" x2="630.7" y2="805.6"/>
	<line class="st0" x1="638.2" y1="808.1" x2="638.2" y2="805.6"/>
	<line class="st0" x1="645.8" y1="808.1" x2="645.8" y2="805.6"/>
	<line class="st0" x1="653.3" y1="808.1" x2="653.3" y2="805.6"/>
	<line class="st0" x1="660.9" y1="808.1" x2="660.9" y2="805.6"/>
	<line class="st0" x1="668.4" y1="808.1" x2="668.4" y2="805.6"/>
	<line class="st0" x1="675.9" y1="808.1" x2="675.9" y2="805.6"/>
	<line class="st0" x1="683.5" y1="808.1" x2="683.5" y2="805.6"/>
	<line class="st0" x1="691" y1="808.1" x2="691" y2="805.6"/>
	<line class="st0" x1="698.6" y1="808.1" x2="698.6" y2="805.6"/>
	<line class="st0" x1="706.1" y1="808.1" x2="706.1" y2="805.6"/>
	<line class="st0" x1="713.7" y1="808.1" x2="713.7" y2="805.6"/>
	<line class="st0" x1="721.2" y1="808.1" x2="721.2" y2="805.6"/>
	<line class="st0" x1="728.8" y1="808.1" x2="728.8" y2="805.6"/>
	<line class="st0" x1="736.3" y1="808.1" x2="736.3" y2="805.6"/>
	<line class="st0" x1="743.9" y1="808.1" x2="743.9" y2="805.6"/>
	<line class="st0" x1="751.4" y1="808.1" x2="751.4" y2="805.6"/>
	<line class="st0" x1="759" y1="808.1" x2="759" y2="805.6"/>
	<line class="st0" x1="766.5" y1="808.1" x2="766.5" y2="805.6"/>
	<line class="st0" x1="774" y1="808.1" x2="774" y2="805.6"/>
	<line class="st0" x1="781.6" y1="808.1" x2="781.6" y2="805.6"/>
	<line class="st0" x1="789.1" y1="808.1" x2="789.1" y2="805.6"/>
	<line class="st0" x1="796.7" y1="808.1" x2="796.7" y2="805.6"/>
	<line class="st0" x1="804.2" y1="808.1" x2="804.2" y2="805.6"/>
	<line class="st0" x1="811.8" y1="808.1" x2="811.8" y2="805.6"/>
	<polygon class="st0" points="592.9,821.6 596.7,825.3 596.7,828.8 592.9,832.6 589.2,828.8 589.2,825.3 	"/>
	<polyline class="st0" points="600.5,836 596.7,839.8 592.9,836 592.9,832.6 	"/>
	<line class="st0" x1="592.9" y1="836" x2="589.4" y2="839.6"/>
	<line class="st0" x1="592.9" y1="819.1" x2="592.9" y2="821.5"/>
	<line class="st0" x1="600.5" y1="832.6" x2="596.7" y2="828.8"/>
	<line class="st0" x1="596.7" y1="825.3" x2="600.5" y2="821.6"/>
	<polyline class="st0" points="592.9,821.6 592.9,819.1 596.7,815.3 	"/>
	<polygon class="st0" points="596.7,842.3 600.5,846 600.5,849.5 596.7,853.3 592.9,849.5 592.9,846 	"/>
	<line class="st0" x1="596.7" y1="839.8" x2="596.7" y2="842.2"/>
	<polyline class="st0" points="592.9,846 589.2,842.2 589.2,839.8 	"/>
	<polyline class="st0" points="808,842.3 811.8,846 811.8,849.5 808,853.3 	"/>
	<line class="st0" x1="596.7" y1="842.3" x2="596.7" y2="839.8"/>
	<polygon class="st0" points="596.7,855.7 600.5,859.5 600.5,863 596.7,866.7 592.9,863 592.9,859.5 	"/>
	<polyline class="st0" points="600.5,874 596.7,870.2 596.7,866.7 	"/>
	<polyline class="st0" points="596.7,870.2 592.9,874 589.2,870.2 589.2,866.7 592.9,863 	"/>
	<polyline class="st0" points="811.8,874 808,870.2 808,866.7 	"/>
	<line class="st0" x1="596.7" y1="853.3" x2="596.7" y2="855.7"/>
	<polyline class="st0" points="592.9,859.5 589.2,855.7 589.2,853.3 592.9,849.5 	"/>
	<polyline class="st0" points="808,855.7 811.8,859.5 811.8,863 808,866.7 	"/>
	<line class="st0" x1="596.7" y1="855.7" x2="596.7" y2="853.3"/>
	<polyline class="st0" points="600.5,887.4 596.7,883.7 596.7,880.2 600.5,876.4 	"/>
	<polyline class="st0" points="592.9,887.4 589.2,883.7 589.2,880.2 592.9,876.4 	"/>
	<line class="st0" x1="600.5" y1="874" x2="600.5" y2="876.4"/>
	<polyline class="st0" points="596.7,880.2 592.9,876.4 592.9,874 	"/>
	<line class="st0" x1="808" y1="880.2" x2="811.8" y2="876.4"/>
	<line class="st0" x1="811.8" y1="876.4" x2="811.8" y2="874"/>
	<polygon class="st0" points="592.9,889.9 596.7,893.7 596.7,897.1 592.9,900.9 589.2,897.1 589.2,893.7 	"/>
	<polyline class="st0" points="600.5,904.3 596.7,908.1 592.9,904.3 592.9,900.9 	"/>
	<line class="st0" x1="592.9" y1="887.4" x2="592.9" y2="889.9"/>
	<line class="st0" x1="600.5" y1="900.9" x2="596.7" y2="897.1"/>
	<line class="st0" x1="596.7" y1="893.7" x2="600.5" y2="889.9"/>
	<polyline class="st0" points="592.9,889.9 592.9,887.4 596.7,883.7 	"/>
	<polygon class="st0" points="596.7,910.6 600.5,914.4 600.5,917.8 596.7,921.6 592.9,917.8 592.9,914.4 	"/>
	<line class="st0" x1="596.7" y1="908.1" x2="596.7" y2="910.6"/>
	<polyline class="st0" points="592.9,914.4 589.2,910.6 589.2,908.1 592.9,904.3 	"/>
	<polyline class="st0" points="808,910.6 811.8,914.4 811.8,917.8 808,921.6 	"/>
	<line class="st0" x1="596.7" y1="910.6" x2="596.7" y2="908.1"/>
	<line class="st0" x1="808" y1="910.6" x2="808" y2="908.1"/>
	<polygon class="st0" points="596.7,924.1 600.5,927.8 600.5,931.3 596.7,935.1 592.9,931.3 592.9,927.8 	"/>
	<polyline class="st0" points="600.5,942.3 596.7,938.5 596.7,935.1 	"/>
	<polyline class="st0" points="596.7,938.5 592.9,942.3 589.2,938.5 589.2,935.1 592.9,931.3 	"/>
	<polyline class="st0" points="811.8,942.3 808,938.5 808,935.1 	"/>
	<line class="st0" x1="596.7" y1="921.6" x2="596.7" y2="924.1"/>
	<polyline class="st0" points="592.9,927.8 589.2,924.1 589.2,921.6 592.9,917.8 	"/>
	<polyline class="st0" points="808,924.1 811.8,927.8 811.8,931.3 808,935.1 	"/>
	<line class="st0" x1="596.7" y1="924.1" x2="596.7" y2="921.6"/>
	<polyline class="st0" points="600.5,955.8 596.7,952 596.7,948.5 600.5,944.8 	"/>
	<polyline class="st0" points="592.9,955.8 589.2,952 589.2,948.5 592.9,944.8 	"/>
	<line class="st0" x1="600.5" y1="942.3" x2="600.5" y2="944.8"/>
	<polyline class="st0" points="596.7,948.5 592.9,944.8 592.9,942.3 	"/>
	<line class="st0" x1="808" y1="948.5" x2="811.8" y2="944.8"/>
	<line class="st0" x1="811.8" y1="944.8" x2="811.8" y2="942.3"/>
	<polygon class="st0" points="592.9,958.2 596.7,962 596.7,965.5 592.9,969.2 589.2,965.5 589.2,962 	"/>
	<polyline class="st0" points="600.5,972.7 596.7,976.5 592.9,972.7 592.9,969.2 	"/>
	<line class="st0" x1="592.9" y1="972.7" x2="589.2" y2="976.5"/>
	<line class="st0" x1="592.9" y1="955.8" x2="592.9" y2="958.2"/>
	<line class="st0" x1="600.5" y1="969.2" x2="596.7" y2="965.5"/>
	<line class="st0" x1="596.7" y1="962" x2="600.5" y2="958.2"/>
	<polyline class="st0" points="592.9,958.2 592.9,955.8 596.7,952 	"/>
	<polygon class="st0" points="596.7,978.9 600.5,982.7 600.5,986.2 596.7,989.9 592.9,986.2 592.9,982.7 	"/>
	<line class="st0" x1="596.7" y1="976.5" x2="596.7" y2="978.9"/>
	<polyline class="st0" points="592.9,982.7 589.2,978.9 589.2,976.5 	"/>
	<polyline class="st0" points="608,982.7 608,986.2 604.3,989.9 600.5,986.2 	"/>
	<polyline class="st0" points="615.6,982.7 615.6,986.2 611.8,989.9 608,986.2 	"/>
	<polyline class="st0" points="623.1,982.7 623.1,986.2 619.3,989.9 615.6,986.2 	"/>
	<polyline class="st0" points="630.7,982.7 630.7,986.2 626.9,989.9 623.1,986.2 	"/>
	<polyline class="st0" points="638.2,982.7 638.2,986.2 634.4,989.9 630.7,986.2 	"/>
	<polyline class="st0" points="645.8,982.7 645.8,986.2 642,989.9 638.2,986.2 	"/>
	<polyline class="st0" points="653.3,982.7 653.3,986.2 649.5,989.9 645.8,986.2 	"/>
	<polyline class="st0" points="660.9,982.7 660.9,986.2 657.1,989.9 653.3,986.2 	"/>
	<polyline class="st0" points="668.4,982.7 668.4,986.2 664.6,989.9 660.9,986.2 	"/>
	<polyline class="st0" points="675.9,982.7 675.9,986.2 672.2,989.9 668.4,986.2 	"/>
	<polyline class="st0" points="683.5,982.7 683.5,986.2 679.7,989.9 675.9,986.2 	"/>
	<polyline class="st0" points="691,982.7 691,986.2 687.3,989.9 683.5,986.2 	"/>
	<polyline class="st0" points="698.6,982.7 698.6,986.2 694.8,989.9 691,986.2 	"/>
	<polyline class="st0" points="706.1,982.7 706.1,986.2 702.4,989.9 698.6,986.2 	"/>
	<polyline class="st0" points="713.7,982.7 713.7,986.2 709.9,989.9 706.1,986.2 	"/>
	<polyline class="st0" points="721.2,982.7 721.2,986.2 717.5,989.9 713.7,986.2 	"/>
	<polyline class="st0" points="728.8,982.7 728.8,986.2 725,989.9 721.2,986.2 	"/>
	<polyline class="st0" points="736.3,982.7 736.3,986.2 732.5,989.9 728.8,986.2 	"/>
	<polyline class="st0" points="743.9,982.7 743.9,986.2 740.1,989.9 736.3,986.2 	"/>
	<polyline class="st0" points="751.4,982.7 751.4,986.2 747.6,989.9 743.9,986.2 	"/>
	<polyline class="st0" points="759,982.7 759,986.2 755.2,989.9 751.4,986.2 	"/>
	<polyline class="st0" points="766.5,982.7 766.5,986.2 762.7,989.9 759,986.2 	"/>
	<polyline class="st0" points="774,982.7 774,986.2 770.3,989.9 766.5,986.2 	"/>
	<polyline class="st0" points="781.6,982.7 781.6,986.2 777.8,989.9 774,986.2 	"/>
	<polyline class="st0" points="789.1,982.7 789.1,986.2 785.4,989.9 781.6,986.2 	"/>
	<polyline class="st0" points="796.7,982.7 796.7,986.2 792.9,989.9 789.1,986.2 	"/>
	<polyline class="st0" points="804.2,982.7 804.2,986.2 800.5,989.9 796.7,986.2 	"/>
	<polyline class="st0" points="808,978.9 811.8,982.7 811.8,986.2 808,989.9 804.2,986.2 	"/>
	<line class="st0" x1="596.7" y1="978.9" x2="596.7" y2="976.5"/>
	<line class="st0" x1="808" y1="978.9" x2="808" y2="976.5"/>
	<line class="st0" x1="592.9" y1="999.6" x2="590" y2="1002.5"/>
	<polyline class="st0" points="808,760.4 811.8,764.2 811.8,767.7 808,771.4 804.2,767.7 804.2,764.2 	"/>
	<polyline class="st0" points="808,757 811.8,753.2 811.8,750.8 808,747 	"/>
	<polyline class="st0" points="808,825.3 811.8,821.6 811.8,819.1 808,815.3 	"/>
	<polyline class="st0" points="808,828.8 811.8,832.6 811.8,836 808,839.8 	"/>
	<polyline class="st0" points="808,893.7 811.8,889.9 811.8,887.4 808,883.7 	"/>
	<polyline class="st0" points="808,897.1 811.8,900.9 811.8,904.3 808,908.1 	"/>
	<polyline class="st0" points="808,962 811.8,958.2 811.8,955.8 808,952 	"/>
	<polyline class="st0" points="808,965.5 811.6,969.1 811.8,972.7 808,976.5 	"/>
	<polygon class="st0" points="596.7,1005.9 600.5,1009.7 600.5,1013.1 596.7,1016.9 592.9,1013.1 592.9,1009.7 	"/>
	<polyline class="st0" points="604.3,1020.3 600.5,1024.1 596.7,1020.3 596.7,1016.9 	"/>
	<polyline class="st0" points="596.7,1020.3 592.9,1024.1 589.2,1020.3 589.2,1016.9 592.9,1013.1 	"/>
	<polyline class="st0" points="611.8,1020.3 608,1024.1 604.3,1020.3 604.3,1016.9 	"/>
	<polyline class="st0" points="619.3,1020.3 615.6,1024.1 611.8,1020.3 611.8,1016.9 	"/>
	<polyline class="st0" points="626.9,1020.3 623.1,1024.1 619.3,1020.3 619.3,1016.9 	"/>
	<polyline class="st0" points="634.4,1020.3 630.7,1024.1 626.9,1020.3 626.9,1016.9 	"/>
	<polyline class="st0" points="642,1020.3 638.2,1024.1 634.4,1020.3 634.4,1016.9 	"/>
	<polyline class="st0" points="649.5,1020.3 645.8,1024.1 642,1020.3 642,1016.9 	"/>
	<polyline class="st0" points="657.1,1020.3 653.3,1024.1 649.5,1020.3 649.5,1016.9 	"/>
	<polyline class="st0" points="664.6,1020.3 660.9,1024.1 657.1,1020.3 657.1,1016.9 	"/>
	<polyline class="st0" points="672.2,1020.3 668.4,1024.1 664.6,1020.3 664.6,1016.9 	"/>
	<polyline class="st0" points="679.7,1020.3 675.9,1024.1 672.2,1020.3 672.2,1016.9 	"/>
	<polyline class="st0" points="687.3,1020.3 683.5,1024.1 679.7,1020.3 679.7,1016.9 	"/>
	<polyline class="st0" points="694.8,1020.3 691,1024.1 687.3,1020.3 687.3,1016.9 	"/>
	<polyline class="st0" points="702.4,1020.3 698.6,1024.1 694.8,1020.3 694.8,1016.9 	"/>
	<polyline class="st0" points="709.9,1020.3 706.1,1024.1 702.4,1020.3 702.4,1016.9 	"/>
	<polyline class="st0" points="717.5,1020.3 713.7,1024.1 709.9,1020.3 709.9,1016.9 	"/>
	<polyline class="st0" points="725,1020.3 721.2,1024.1 717.5,1020.3 717.5,1016.9 	"/>
	<polyline class="st0" points="732.5,1020.3 728.8,1024.1 725,1020.3 725,1016.9 	"/>
	<polyline class="st0" points="740.1,1020.3 736.3,1024.1 732.5,1020.3 732.5,1016.9 	"/>
	<polyline class="st0" points="747.6,1020.3 743.9,1024.1 740.1,1020.3 740.1,1016.9 	"/>
	<polyline class="st0" points="755.2,1020.3 751.4,1024.1 747.6,1020.3 747.6,1016.9 	"/>
	<polyline class="st0" points="762.7,1020.3 759,1024.1 755.2,1020.3 755.2,1016.9 	"/>
	<polyline class="st0" points="770.3,1020.3 766.5,1024.1 762.7,1020.3 762.7,1016.9 	"/>
	<polyline class="st0" points="777.8,1020.3 774,1024.1 770.3,1020.3 770.3,1016.9 	"/>
	<polyline class="st0" points="785.4,1020.3 781.6,1024.1 777.8,1020.3 777.8,1016.9 	"/>
	<polyline class="st0" points="792.9,1020.3 789.1,1024.1 785.4,1020.3 785.4,1016.9 	"/>
	<polyline class="st0" points="800.5,1020.3 796.7,1024.1 792.9,1020.3 792.9,1016.9 	"/>
	<polyline class="st0" points="808,1020.3 804.2,1024.1 800.5,1020.3 800.5,1016.9 	"/>
	<polyline class="st0" points="811.8,1024.1 808,1020.3 808,1016.9 	"/>
	<line class="st0" x1="596.7" y1="1003.4" x2="596.7" y2="1005.9"/>
	<polyline class="st0" points="592.9,1009.6 589.2,1005.9 589.2,1003.4 	"/>
	<polyline class="st0" points="600.5,1009.7 604.3,1005.9 608,1009.7 608,1013.1 604.3,1016.9 600.5,1013.1 	"/>
	<polyline class="st0" points="608,1009.7 611.8,1005.9 615.6,1009.7 615.6,1013.1 611.8,1016.9 608,1013.1 	"/>
	<polyline class="st0" points="615.6,1009.7 619.3,1005.9 623.1,1009.7 623.1,1013.1 619.3,1016.9 615.6,1013.1 	"/>
	<polyline class="st0" points="623.1,1009.7 626.9,1005.9 630.7,1009.7 630.7,1013.1 626.9,1016.9 623.1,1013.1 	"/>
	<polyline class="st0" points="630.7,1009.7 634.4,1005.9 638.2,1009.7 638.2,1013.1 634.4,1016.9 630.7,1013.1 	"/>
	<polyline class="st0" points="638.2,1009.7 642,1005.9 645.8,1009.7 645.8,1013.1 642,1016.9 638.2,1013.1 	"/>
	<polyline class="st0" points="645.8,1009.7 649.5,1005.9 653.3,1009.7 653.3,1013.1 649.5,1016.9 645.8,1013.1 	"/>
	<polyline class="st0" points="653.3,1009.7 657.1,1005.9 660.9,1009.7 660.9,1013.1 657.1,1016.9 653.3,1013.1 	"/>
	<polyline class="st0" points="660.9,1009.7 664.6,1005.9 668.4,1009.7 668.4,1013.1 664.6,1016.9 660.9,1013.1 	"/>
	<polyline class="st0" points="668.4,1009.7 672.2,1005.9 675.9,1009.7 675.9,1013.1 672.2,1016.9 668.4,1013.1 	"/>
	<polyline class="st0" points="675.9,1009.7 679.7,1005.9 683.5,1009.7 683.5,1013.1 679.7,1016.9 675.9,1013.1 	"/>
	<polyline class="st0" points="683.5,1009.7 687.3,1005.9 691,1009.7 691,1013.1 687.3,1016.9 683.5,1013.1 	"/>
	<polyline class="st0" points="691,1009.7 694.8,1005.9 698.6,1009.7 698.6,1013.1 694.8,1016.9 691,1013.1 	"/>
	<polyline class="st0" points="698.6,1009.7 702.4,1005.9 706.1,1009.7 706.1,1013.1 702.4,1016.9 698.6,1013.1 	"/>
	<polyline class="st0" points="706.1,1009.7 709.9,1005.9 713.7,1009.7 713.7,1013.1 709.9,1016.9 706.1,1013.1 	"/>
	<polyline class="st0" points="713.7,1009.7 717.5,1005.9 721.2,1009.7 721.2,1013.1 717.5,1016.9 713.7,1013.1 	"/>
	<polyline class="st0" points="721.2,1009.7 725,1005.9 728.8,1009.7 728.8,1013.1 725,1016.9 721.2,1013.1 	"/>
	<polyline class="st0" points="728.8,1009.7 732.5,1005.9 736.3,1009.7 736.3,1013.1 732.5,1016.9 728.8,1013.1 	"/>
	<polyline class="st0" points="736.3,1009.7 740.1,1005.9 743.9,1009.7 743.9,1013.1 740.1,1016.9 736.3,1013.1 	"/>
	<polyline class="st0" points="743.9,1009.7 747.6,1005.9 751.4,1009.7 751.4,1013.1 747.6,1016.9 743.9,1013.1 	"/>
	<polyline class="st0" points="751.4,1009.7 755.2,1005.9 759,1009.7 759,1013.1 755.2,1016.9 751.4,1013.1 	"/>
	<polyline class="st0" points="759,1009.7 762.7,1005.9 766.5,1009.7 766.5,1013.1 762.7,1016.9 759,1013.1 	"/>
	<polyline class="st0" points="766.5,1009.7 770.3,1005.9 774,1009.7 774,1013.1 770.3,1016.9 766.5,1013.1 	"/>
	<polyline class="st0" points="774,1009.7 777.8,1005.9 781.6,1009.7 781.6,1013.1 777.8,1016.9 774,1013.1 	"/>
	<polyline class="st0" points="781.6,1009.7 785.4,1005.9 789.1,1009.7 789.1,1013.1 785.4,1016.9 781.6,1013.1 	"/>
	<polyline class="st0" points="789.1,1009.7 792.9,1005.9 796.7,1009.7 796.7,1013.1 792.9,1016.9 789.1,1013.1 	"/>
	<polyline class="st0" points="796.7,1009.7 800.5,1005.9 804.2,1009.7 804.2,1013.1 800.5,1016.9 796.7,1013.1 	"/>
	<polyline class="st0" points="804.2,1009.7 808,1005.9 811.8,1009.7 811.8,1013.1 808,1016.9 804.2,1013.1 	"/>
	<line class="st0" x1="596.7" y1="1005.9" x2="596.7" y2="1003.4"/>
	<line class="st0" x1="604.3" y1="1005.9" x2="604.3" y2="1003.4"/>
	<line class="st0" x1="611.8" y1="1005.9" x2="611.8" y2="1003.4"/>
	<line class="st0" x1="619.3" y1="1005.9" x2="619.3" y2="1003.4"/>
	<line class="st0" x1="626.9" y1="1005.9" x2="626.9" y2="1003.4"/>
	<line class="st0" x1="634.4" y1="1005.9" x2="634.4" y2="1003.4"/>
	<line class="st0" x1="642" y1="1005.9" x2="642" y2="1003.4"/>
	<line class="st0" x1="649.5" y1="1005.9" x2="649.5" y2="1003.4"/>
	<line class="st0" x1="657.1" y1="1005.9" x2="657.1" y2="1003.4"/>
	<line class="st0" x1="664.6" y1="1005.9" x2="664.6" y2="1003.4"/>
	<line class="st0" x1="672.2" y1="1005.9" x2="672.2" y2="1003.4"/>
	<line class="st0" x1="679.7" y1="1005.9" x2="679.7" y2="1003.4"/>
	<line class="st0" x1="687.3" y1="1005.9" x2="687.3" y2="1003.4"/>
	<line class="st0" x1="694.8" y1="1005.9" x2="694.8" y2="1003.4"/>
	<line class="st0" x1="702.4" y1="1005.9" x2="702.4" y2="1003.4"/>
	<line class="st0" x1="709.9" y1="1005.9" x2="709.9" y2="1003.4"/>
	<line class="st0" x1="717.5" y1="1005.9" x2="717.5" y2="1003.4"/>
	<line class="st0" x1="725" y1="1005.9" x2="725" y2="1003.4"/>
	<line class="st0" x1="732.5" y1="1005.9" x2="732.5" y2="1003.4"/>
	<line class="st0" x1="740.1" y1="1005.9" x2="740.1" y2="1003.4"/>
	<line class="st0" x1="747.6" y1="1005.9" x2="747.6" y2="1003.4"/>
	<line class="st0" x1="755.2" y1="1005.9" x2="755.2" y2="1003.4"/>
	<line class="st0" x1="762.7" y1="1005.9" x2="762.7" y2="1003.4"/>
	<line class="st0" x1="770.3" y1="1005.9" x2="770.3" y2="1003.4"/>
	<line class="st0" x1="777.8" y1="1005.9" x2="777.8" y2="1003.4"/>
	<line class="st0" x1="785.4" y1="1005.9" x2="785.4" y2="1003.4"/>
	<line class="st0" x1="792.9" y1="1005.9" x2="792.9" y2="1003.4"/>
	<line class="st0" x1="800.5" y1="1005.9" x2="800.5" y2="1003.4"/>
	<line class="st0" x1="808" y1="1005.9" x2="808" y2="1003.4"/>
	<polygon class="st0" points="600.5,1026.6 604.3,1030.4 604.3,1033.8 600.5,1037.6 596.7,1033.8 596.7,1030.4 	"/>
	<polyline class="st0" points="592.9,1037.6 589.2,1033.8 589.2,1030.4 592.9,1026.6 	"/>
	<line class="st0" x1="600.5" y1="1024.1" x2="600.5" y2="1026.6"/>
	<polyline class="st0" points="596.7,1030.3 592.9,1026.6 592.9,1024.1 	"/>
	<polyline class="st0" points="604.3,1030.4 608,1026.6 611.8,1030.4 611.8,1033.8 608,1037.6 604.3,1033.8 	"/>
	<polyline class="st0" points="611.8,1030.4 615.6,1026.6 619.3,1030.4 619.3,1033.8 615.6,1037.6 611.8,1033.8 	"/>
	<polyline class="st0" points="619.3,1030.4 623.1,1026.6 626.9,1030.4 626.9,1033.8 623.1,1037.6 619.3,1033.8 	"/>
	<polyline class="st0" points="626.9,1030.4 630.7,1026.6 634.4,1030.4 634.4,1033.8 630.7,1037.6 626.9,1033.8 	"/>
	<polyline class="st0" points="634.4,1030.4 638.2,1026.6 642,1030.4 642,1033.8 638.2,1037.6 634.4,1033.8 	"/>
	<polyline class="st0" points="642,1030.4 645.8,1026.6 649.5,1030.4 649.5,1033.8 645.8,1037.6 642,1033.8 	"/>
	<polyline class="st0" points="649.5,1030.4 653.3,1026.6 657.1,1030.4 657.1,1033.8 653.3,1037.6 649.5,1033.8 	"/>
	<polyline class="st0" points="657.1,1030.4 660.9,1026.6 664.6,1030.4 664.6,1033.8 660.9,1037.6 657.1,1033.8 	"/>
	<polyline class="st0" points="664.6,1030.4 668.4,1026.6 672.2,1030.4 672.2,1033.8 668.4,1037.6 664.6,1033.8 	"/>
	<polyline class="st0" points="672.2,1030.4 675.9,1026.6 679.7,1030.4 679.7,1033.8 675.9,1037.6 672.2,1033.8 	"/>
	<polyline class="st0" points="679.7,1030.4 683.5,1026.6 687.3,1030.4 687.3,1033.8 683.5,1037.6 679.7,1033.8 	"/>
	<polyline class="st0" points="687.3,1030.4 691,1026.6 694.8,1030.4 694.8,1033.8 691,1037.6 687.3,1033.8 	"/>
	<polyline class="st0" points="694.8,1030.4 698.6,1026.6 702.4,1030.4 702.4,1033.8 698.6,1037.6 694.8,1033.8 	"/>
	<polyline class="st0" points="702.4,1030.4 706.1,1026.6 709.9,1030.4 709.9,1033.8 706.1,1037.6 702.4,1033.8 	"/>
	<polyline class="st0" points="709.9,1030.4 713.7,1026.6 717.5,1030.4 717.5,1033.8 713.7,1037.6 709.9,1033.8 	"/>
	<polyline class="st0" points="717.5,1030.4 721.2,1026.6 725,1030.4 725,1033.8 721.2,1037.6 717.5,1033.8 	"/>
	<polyline class="st0" points="725,1030.4 728.8,1026.6 732.5,1030.4 732.5,1033.8 728.8,1037.6 725,1033.8 	"/>
	<polyline class="st0" points="732.5,1030.4 736.3,1026.6 740.1,1030.4 740.1,1033.8 736.3,1037.6 732.5,1033.8 	"/>
	<polyline class="st0" points="740.1,1030.4 743.9,1026.6 747.6,1030.4 747.6,1033.8 743.9,1037.6 740.1,1033.8 	"/>
	<polyline class="st0" points="747.6,1030.4 751.4,1026.6 755.2,1030.4 755.2,1033.8 751.4,1037.6 747.6,1033.8 	"/>
	<polyline class="st0" points="755.2,1030.4 759,1026.6 762.7,1030.4 762.7,1033.8 759,1037.6 755.2,1033.8 	"/>
	<polyline class="st0" points="762.7,1030.4 766.5,1026.6 770.3,1030.4 770.3,1033.8 766.5,1037.6 762.7,1033.8 	"/>
	<polyline class="st0" points="770.3,1030.4 774,1026.6 777.8,1030.4 777.8,1033.8 774,1037.6 770.3,1033.8 	"/>
	<polyline class="st0" points="777.8,1030.4 781.6,1026.6 785.4,1030.4 785.4,1033.8 781.6,1037.6 777.8,1033.8 	"/>
	<polyline class="st0" points="785.4,1030.4 789.1,1026.6 792.9,1030.4 792.9,1033.8 789.1,1037.6 785.4,1033.8 	"/>
	<polyline class="st0" points="792.9,1030.4 796.7,1026.6 800.5,1030.4 800.5,1033.8 796.7,1037.6 792.9,1033.8 	"/>
	<polyline class="st0" points="800.5,1030.4 804.2,1026.6 808,1030.4 808,1033.8 804.2,1037.6 800.5,1033.8 	"/>
	<line class="st0" x1="808" y1="1030.4" x2="811.8" y2="1026.6"/>
	<line class="st0" x1="600.5" y1="1026.6" x2="600.5" y2="1024.1"/>
	<line class="st0" x1="608" y1="1026.6" x2="608" y2="1024.1"/>
	<line class="st0" x1="615.6" y1="1026.6" x2="615.6" y2="1024.1"/>
	<line class="st0" x1="623.1" y1="1026.6" x2="623.1" y2="1024.1"/>
	<line class="st0" x1="630.7" y1="1026.6" x2="630.7" y2="1024.1"/>
	<line class="st0" x1="638.2" y1="1026.6" x2="638.2" y2="1024.1"/>
	<line class="st0" x1="645.8" y1="1026.6" x2="645.8" y2="1024.1"/>
	<line class="st0" x1="653.3" y1="1026.6" x2="653.3" y2="1024.1"/>
	<line class="st0" x1="660.9" y1="1026.6" x2="660.9" y2="1024.1"/>
	<line class="st0" x1="668.4" y1="1026.6" x2="668.4" y2="1024.1"/>
	<line class="st0" x1="675.9" y1="1026.6" x2="675.9" y2="1024.1"/>
	<line class="st0" x1="683.5" y1="1026.6" x2="683.5" y2="1024.1"/>
	<line class="st0" x1="691" y1="1026.6" x2="691" y2="1024.1"/>
	<line class="st0" x1="698.6" y1="1026.6" x2="698.6" y2="1024.1"/>
	<line class="st0" x1="706.1" y1="1026.6" x2="706.1" y2="1024.1"/>
	<line class="st0" x1="713.7" y1="1026.6" x2="713.7" y2="1024.1"/>
	<line class="st0" x1="721.2" y1="1026.6" x2="721.2" y2="1024.1"/>
	<line class="st0" x1="728.8" y1="1026.6" x2="728.8" y2="1024.1"/>
	<line class="st0" x1="736.3" y1="1026.6" x2="736.3" y2="1024.1"/>
	<line class="st0" x1="743.9" y1="1026.6" x2="743.9" y2="1024.1"/>
	<line class="st0" x1="751.4" y1="1026.6" x2="751.4" y2="1024.1"/>
	<line class="st0" x1="759" y1="1026.6" x2="759" y2="1024.1"/>
	<line class="st0" x1="766.5" y1="1026.6" x2="766.5" y2="1024.1"/>
	<line class="st0" x1="774" y1="1026.6" x2="774" y2="1024.1"/>
	<line class="st0" x1="781.6" y1="1026.6" x2="781.6" y2="1024.1"/>
	<line class="st0" x1="789.1" y1="1026.6" x2="789.1" y2="1024.1"/>
	<line class="st0" x1="796.7" y1="1026.6" x2="796.7" y2="1024.1"/>
	<line class="st0" x1="804.2" y1="1026.6" x2="804.2" y2="1024.1"/>
	<line class="st0" x1="811.8" y1="1026.6" x2="811.8" y2="1024.1"/>
	<polygon class="st0" points="592.9,1040 596.7,1043.8 596.7,1047.3 592.9,1051 589.2,1047.3 589.2,1043.8 	"/>
	<polyline class="st0" points="600.5,1054.5 596.7,1058.3 592.9,1054.5 592.9,1051 	"/>
	<line class="st0" x1="592.9" y1="1054.5" x2="589.2" y2="1058.3"/>
	<polyline class="st0" points="608,1054.5 604.3,1058.3 600.5,1054.5 600.5,1051 	"/>
	<polyline class="st0" points="615.6,1054.5 611.8,1058.3 608,1054.5 608,1051 	"/>
	<polyline class="st0" points="623.1,1054.5 619.3,1058.3 615.6,1054.5 615.6,1051 	"/>
	<polyline class="st0" points="630.7,1054.5 626.9,1058.3 623.1,1054.5 623.1,1051 	"/>
	<polyline class="st0" points="638.2,1054.5 634.4,1058.3 630.7,1054.5 630.7,1051 	"/>
	<polyline class="st0" points="645.8,1054.5 642,1058.3 638.2,1054.5 638.2,1051 	"/>
	<polyline class="st0" points="653.3,1054.5 649.5,1058.3 645.8,1054.5 645.8,1051 	"/>
	<polyline class="st0" points="660.9,1054.5 657.1,1058.3 653.3,1054.5 653.3,1051 	"/>
	<polyline class="st0" points="668.4,1054.5 664.6,1058.3 660.9,1054.5 660.9,1051 	"/>
	<polyline class="st0" points="675.9,1054.5 672.2,1058.3 668.4,1054.5 668.4,1051 	"/>
	<polyline class="st0" points="683.5,1054.5 679.7,1058.3 675.9,1054.5 675.9,1051 	"/>
	<polyline class="st0" points="691,1054.5 687.3,1058.3 683.5,1054.5 683.5,1051 	"/>
	<polyline class="st0" points="698.6,1054.5 694.8,1058.3 691,1054.5 691,1051 	"/>
	<polyline class="st0" points="706.1,1054.5 702.4,1058.3 698.6,1054.5 698.6,1051 	"/>
	<polyline class="st0" points="713.7,1054.5 709.9,1058.3 706.1,1054.5 706.1,1051 	"/>
	<polyline class="st0" points="721.2,1054.5 717.5,1058.3 713.7,1054.5 713.7,1051 	"/>
	<polyline class="st0" points="728.8,1054.5 725,1058.3 721.2,1054.5 721.2,1051 	"/>
	<polyline class="st0" points="736.3,1054.5 732.5,1058.3 728.8,1054.5 728.8,1051 	"/>
	<polyline class="st0" points="743.9,1054.5 740.1,1058.3 736.3,1054.5 736.3,1051 	"/>
	<polyline class="st0" points="751.4,1054.5 747.6,1058.3 743.9,1054.5 743.9,1051 	"/>
	<polyline class="st0" points="759,1054.5 755.2,1058.3 751.4,1054.5 751.4,1051 	"/>
	<polyline class="st0" points="766.5,1054.5 762.7,1058.3 759,1054.5 759,1051 	"/>
	<polyline class="st0" points="774,1054.5 770.3,1058.3 766.5,1054.5 766.5,1051 	"/>
	<polyline class="st0" points="781.6,1054.5 777.8,1058.3 774,1054.5 774,1051 	"/>
	<polyline class="st0" points="789.1,1054.5 785.4,1058.3 781.6,1054.5 781.6,1051 	"/>
	<polyline class="st0" points="796.7,1054.5 792.9,1058.3 789.1,1054.5 789.1,1051 	"/>
	<polyline class="st0" points="804.2,1054.5 800.5,1058.3 796.7,1054.5 796.7,1051 	"/>
	<line class="st0" x1="592.9" y1="1037.6" x2="592.9" y2="1040"/>
	<polyline class="st0" points="596.7,1043.8 600.5,1040 604.3,1043.8 604.3,1047.3 600.5,1051 596.7,1047.3 	"/>
	<polyline class="st0" points="604.3,1043.8 608,1040 611.8,1043.8 611.8,1047.3 608,1051 604.3,1047.3 	"/>
	<polyline class="st0" points="611.8,1043.8 615.6,1040 619.3,1043.8 619.3,1047.3 615.6,1051 611.8,1047.3 	"/>
	<polyline class="st0" points="619.3,1043.8 623.1,1040 626.9,1043.8 626.9,1047.3 623.1,1051 619.3,1047.3 	"/>
	<polyline class="st0" points="626.9,1043.8 630.7,1040 634.4,1043.8 634.4,1047.3 630.7,1051 626.9,1047.3 	"/>
	<polyline class="st0" points="634.4,1043.8 638.2,1040 642,1043.8 642,1047.3 638.2,1051 634.4,1047.3 	"/>
	<polyline class="st0" points="642,1043.8 645.8,1040 649.5,1043.8 649.5,1047.3 645.8,1051 642,1047.3 	"/>
	<polyline class="st0" points="649.5,1043.8 653.3,1040 657.1,1043.8 657.1,1047.3 653.3,1051 649.5,1047.3 	"/>
	<polyline class="st0" points="657.1,1043.8 660.9,1040 664.6,1043.8 664.6,1047.3 660.9,1051 657.1,1047.3 	"/>
	<polyline class="st0" points="664.6,1043.8 668.4,1040 672.2,1043.8 672.2,1047.3 668.4,1051 664.6,1047.3 	"/>
	<polyline class="st0" points="672.2,1043.8 675.9,1040 679.7,1043.8 679.7,1047.3 675.9,1051 672.2,1047.3 	"/>
	<polyline class="st0" points="679.7,1043.8 683.5,1040 687.3,1043.8 687.3,1047.3 683.5,1051 679.7,1047.3 	"/>
	<polyline class="st0" points="687.3,1043.8 691,1040 694.8,1043.8 694.8,1047.3 691,1051 687.3,1047.3 	"/>
	<polyline class="st0" points="694.8,1043.8 698.6,1040 702.4,1043.8 702.4,1047.3 698.6,1051 694.8,1047.3 	"/>
	<polyline class="st0" points="702.4,1043.8 706.1,1040 709.9,1043.8 709.9,1047.3 706.1,1051 702.4,1047.3 	"/>
	<polyline class="st0" points="709.9,1043.8 713.7,1040 717.5,1043.8 717.5,1047.3 713.7,1051 709.9,1047.3 	"/>
	<polyline class="st0" points="717.5,1043.8 721.2,1040 725,1043.8 725,1047.3 721.2,1051 717.5,1047.3 	"/>
	<polyline class="st0" points="725,1043.8 728.8,1040 732.5,1043.8 732.5,1047.3 728.8,1051 725,1047.3 	"/>
	<polyline class="st0" points="732.5,1043.8 736.3,1040 740.1,1043.8 740.1,1047.3 736.3,1051 732.5,1047.3 	"/>
	<polyline class="st0" points="740.1,1043.8 743.9,1040 747.6,1043.8 747.6,1047.3 743.9,1051 740.1,1047.3 	"/>
	<polyline class="st0" points="747.6,1043.8 751.4,1040 755.2,1043.8 755.2,1047.3 751.4,1051 747.6,1047.3 	"/>
	<polyline class="st0" points="755.2,1043.8 759,1040 762.7,1043.8 762.7,1047.3 759,1051 755.2,1047.3 	"/>
	<polyline class="st0" points="762.7,1043.8 766.5,1040 770.3,1043.8 770.3,1047.3 766.5,1051 762.7,1047.3 	"/>
	<polyline class="st0" points="770.3,1043.8 774,1040 777.8,1043.8 777.8,1047.3 774,1051 770.3,1047.3 	"/>
	<polyline class="st0" points="777.8,1043.8 781.6,1040 785.4,1043.8 785.4,1047.3 781.6,1051 777.8,1047.3 	"/>
	<polyline class="st0" points="785.4,1043.8 789.1,1040 792.9,1043.8 792.9,1047.3 789.1,1051 785.4,1047.3 	"/>
	<polyline class="st0" points="792.9,1043.8 796.7,1040 800.5,1043.8 800.5,1047.3 796.7,1051 792.9,1047.3 	"/>
	<polyline class="st0" points="800.5,1043.8 804.2,1040 808,1043.8 808,1047.3 804.2,1051 800.5,1047.3 	"/>
	<polyline class="st0" points="592.9,1040 592.9,1037.6 596.7,1033.8 	"/>
	<line class="st0" x1="600.5" y1="1040" x2="600.5" y2="1037.6"/>
	<line class="st0" x1="608" y1="1040" x2="608" y2="1037.6"/>
	<line class="st0" x1="615.6" y1="1040" x2="615.6" y2="1037.6"/>
	<line class="st0" x1="623.1" y1="1040" x2="623.1" y2="1037.6"/>
	<line class="st0" x1="630.7" y1="1040" x2="630.7" y2="1037.6"/>
	<line class="st0" x1="638.2" y1="1040" x2="638.2" y2="1037.6"/>
	<line class="st0" x1="645.8" y1="1040" x2="645.8" y2="1037.6"/>
	<line class="st0" x1="653.3" y1="1040" x2="653.3" y2="1037.6"/>
	<line class="st0" x1="660.9" y1="1040" x2="660.9" y2="1037.6"/>
	<line class="st0" x1="668.4" y1="1040" x2="668.4" y2="1037.6"/>
	<line class="st0" x1="675.9" y1="1040" x2="675.9" y2="1037.6"/>
	<line class="st0" x1="683.5" y1="1040" x2="683.5" y2="1037.6"/>
	<line class="st0" x1="691" y1="1040" x2="691" y2="1037.6"/>
	<line class="st0" x1="698.6" y1="1040" x2="698.6" y2="1037.6"/>
	<line class="st0" x1="706.1" y1="1040" x2="706.1" y2="1037.6"/>
	<line class="st0" x1="713.7" y1="1040" x2="713.7" y2="1037.6"/>
	<line class="st0" x1="721.2" y1="1040" x2="721.2" y2="1037.6"/>
	<line class="st0" x1="728.8" y1="1040" x2="728.8" y2="1037.6"/>
	<line class="st0" x1="736.3" y1="1040" x2="736.3" y2="1037.6"/>
	<line class="st0" x1="743.9" y1="1040" x2="743.9" y2="1037.6"/>
	<line class="st0" x1="751.4" y1="1040" x2="751.4" y2="1037.6"/>
	<line class="st0" x1="759" y1="1040" x2="759" y2="1037.6"/>
	<line class="st0" x1="766.5" y1="1040" x2="766.5" y2="1037.6"/>
	<line class="st0" x1="774" y1="1040" x2="774" y2="1037.6"/>
	<line class="st0" x1="781.6" y1="1040" x2="781.6" y2="1037.6"/>
	<line class="st0" x1="789.1" y1="1040" x2="789.1" y2="1037.6"/>
	<line class="st0" x1="796.7" y1="1040" x2="796.7" y2="1037.6"/>
	<line class="st0" x1="804.2" y1="1040" x2="804.2" y2="1037.6"/>
	<line class="st0" x1="596.7" y1="1058.3" x2="596.7" y2="1060.7"/>
	<line class="st0" x1="589.2" y1="1060.7" x2="589.2" y2="1058.3"/>
	<line class="st0" x1="596.7" y1="1060.7" x2="596.7" y2="1058.3"/>
	<line class="st0" x1="604.3" y1="1060.7" x2="604.3" y2="1058.3"/>
	<line class="st0" x1="611.8" y1="1060.7" x2="611.8" y2="1058.3"/>
	<line class="st0" x1="619.3" y1="1060.7" x2="619.3" y2="1058.3"/>
	<line class="st0" x1="626.9" y1="1060.7" x2="626.9" y2="1058.3"/>
	<line class="st0" x1="634.4" y1="1060.7" x2="634.4" y2="1058.3"/>
	<line class="st0" x1="642" y1="1060.7" x2="642" y2="1058.3"/>
	<line class="st0" x1="649.5" y1="1060.7" x2="649.5" y2="1058.3"/>
	<line class="st0" x1="657.1" y1="1060.7" x2="657.1" y2="1058.3"/>
	<line class="st0" x1="664.6" y1="1060.7" x2="664.6" y2="1058.3"/>
	<line class="st0" x1="672.2" y1="1060.7" x2="672.2" y2="1058.3"/>
	<line class="st0" x1="679.7" y1="1060.7" x2="679.7" y2="1058.3"/>
	<line class="st0" x1="687.3" y1="1060.7" x2="687.3" y2="1058.3"/>
	<line class="st0" x1="694.8" y1="1060.7" x2="694.8" y2="1058.3"/>
	<line class="st0" x1="702.4" y1="1060.7" x2="702.4" y2="1058.3"/>
	<line class="st0" x1="709.9" y1="1060.7" x2="709.9" y2="1058.3"/>
	<line class="st0" x1="717.5" y1="1060.7" x2="717.5" y2="1058.3"/>
	<line class="st0" x1="725" y1="1060.7" x2="725" y2="1058.3"/>
	<line class="st0" x1="732.5" y1="1060.7" x2="732.5" y2="1058.3"/>
	<line class="st0" x1="740.1" y1="1060.7" x2="740.1" y2="1058.3"/>
	<line class="st0" x1="747.6" y1="1060.7" x2="747.6" y2="1058.3"/>
	<line class="st0" x1="755.2" y1="1060.7" x2="755.2" y2="1058.3"/>
	<line class="st0" x1="762.7" y1="1060.7" x2="762.7" y2="1058.3"/>
	<line class="st0" x1="770.3" y1="1060.7" x2="770.3" y2="1058.3"/>
	<line class="st0" x1="777.8" y1="1060.7" x2="777.8" y2="1058.3"/>
	<line class="st0" x1="785.4" y1="1060.7" x2="785.4" y2="1058.3"/>
	<line class="st0" x1="792.9" y1="1060.7" x2="792.9" y2="1058.3"/>
	<line class="st0" x1="800.5" y1="1060.7" x2="800.5" y2="1058.3"/>
	<line class="st0" x1="808" y1="1060.7" x2="808" y2="1058.3"/>
	<polyline class="st0" points="808,1047.3 811.8,1051 811.8,1054.5 808,1058.3 804.2,1054.5 804.2,1051 	"/>
	<polyline class="st0" points="808,1043.8 811.8,1040 811.8,1037.6 808,1033.8 	"/>
</g>
</svg>
