<?xml version="1.0" encoding="utf-8"?>
<!-- Generator: Adobe Illustrator 25.0.0, SVG Export Plug-In . SVG Version: 6.00 Build 0)  -->
<svg version="1.1" id="Layer_1" xmlns="http://www.w3.org/2000/svg" xmlns:xlink="http://www.w3.org/1999/xlink" x="0px" y="0px"
	 viewBox="0 0 2365.9 1731.4" style="enable-background:new 0 0 2365.9 1731.4;" xml:space="preserve">
<style type="text/css">
	.st0{fill:none;stroke:#080305;}
</style>
<rect x="37.2" y="657" class="st0" width="420.8" height="424.2"/>
<line class="st0" x1="36.7" y1="980.6" x2="457.9" y2="980.6"/>
<line class="st0" x1="36.7" y1="878.5" x2="457.9" y2="878.5"/>
<line class="st0" x1="37.1" y1="763.3" x2="457.9" y2="763.3"/>
<rect x="768.1" y="331.8" class="st0" width="420.8" height="267.2"/>
<line class="st0" x1="767.9" y1="481.2" x2="1189" y2="481.2"/>
<line class="st0" x1="768" y1="423.1" x2="1189.2" y2="423.1"/>
<line class="st0" x1="768.6" y1="363.8" x2="1189" y2="363.8"/>
<rect x="768.4" y="1150.7" class="st0" width="420.8" height="237.1"/>
<line class="st0" x1="768.4" y1="1184.7" x2="1189" y2="1184.7"/>
<rect x="1639" y="1169.7" class="st0" width="420.8" height="210.2"/>
<line class="st0" x1="1639.5" y1="1263.3" x2="2059.8" y2="1263.3"/>
<line class="st0" x1="1638.8" y1="1234" x2="2059.8" y2="1234"/>
<line class="st0" x1="1638.8" y1="1204.9" x2="2059.8" y2="1204.9"/>
<rect x="1640.2" y="354.5" class="st0" width="420.8" height="248.4"/>
<line class="st0" x1="1639.7" y1="490.6" x2="2061.2" y2="490.6"/>
<line class="st0" x1="1639.7" y1="416.9" x2="2061.2" y2="416.9"/>
<line class="st0" x1="1639.7" y1="389.3" x2="2060.5" y2="389.3"/>
<line class="st0" x1="767.9" y1="568.8" x2="1189" y2="568.8"/>
<line class="st0" x1="767.9" y1="539.7" x2="1189" y2="539.7"/>
<line class="st0" x1="1639.7" y1="547" x2="2060.9" y2="547"/>
<line class="st0" x1="1640.7" y1="517.7" x2="2061.2" y2="517.7"/>
<line class="st0" x1="767.9" y1="1214.4" x2="1189.4" y2="1214.4"/>
<line class="st0" x1="768.4" y1="1244.2" x2="1189.3" y2="1244.2"/>
<line class="st0" x1="767.9" y1="1271.8" x2="1188.7" y2="1271.8"/>
<line class="st0" x1="767.9" y1="1299.5" x2="1189.1" y2="1299.5"/>
<rect x="1633.8" y="1164.1" class="st0" width="431.8" height="222.7"/>
<rect x="762.9" y="326.8" class="st0" width="430.8" height="277.4"/>
<rect x="763.4" y="1145" class="st0" width="430.8" height="248.1"/>
<rect x="1635.1" y="349.6" class="st0" width="430.8" height="258.2"/>
<g>
	<rect x="846" y="63.9" class="st0" width="277.2" height="208.7"/>
</g>
<rect x="1745.7" y="107.2" class="st0" width="215.4" height="165.2"/>
<rect x="2100.4" y="1146.8" class="st0" width="187.3" height="249.4"/>
<rect x="1249.8" y="1145" class="st0" width="164" height="250.1"/>
<rect x="1542.8" y="971.1" class="st0" width="138.6" height="157.7"/>
<g>
	<rect x="1982.9" y="1509.7" class="st0" width="199.5" height="164.4"/>
	<rect x="1416.1" y="63.9" class="st0" width="185" height="267.8"/>
</g>
<rect x="1211" y="380.4" class="st0" width="202.8" height="56.5"/>
<g>
	<rect x="1237.3" y="1580.6" class="st0" width="177.9" height="93.5"/>
	<rect x="1472.3" y="1567.9" class="st0" width="278.2" height="107.5"/>
</g>
<rect x="922.7" y="964.8" class="st0" width="124.7" height="131.8"/>
<rect x="542" y="964.3" class="st0" width="216.4" height="141.4"/>
<rect x="542.5" y="1462.5" class="st0" width="158.6" height="210.2"/>
<g>
	
		<ellipse transform="matrix(0.982 -0.1891 0.1891 0.982 -113.7062 248.4197)" class="st0" cx="1244.9" cy="720.1" rx="30.7" ry="30.7"/>
	<path class="st0" d="M710.9,772.1c32.6,0,59-26.4,59-59c0-32.6-26.4-59-59-59c-32.6,0-59,26.4-59,59
		C651.9,745.7,678.3,772.1,710.9,772.1z"/>
</g>
<rect x="1176.1" y="964.8" class="st0" width="237.6" height="131.8"/>
<rect x="890.7" y="647.2" class="st0" width="187.3" height="145.7"/>
<rect x="2175.3" y="437.9" class="st0" width="112.3" height="134.5"/>
<rect x="1987.1" y="623.3" class="st0" width="300.5" height="179.5"/>
<rect x="814.4" y="1475.1" class="st0" width="329.1" height="107.5"/>
<rect x="1438.3" y="617.4" class="st0" width="144.6" height="185.5"/>
<rect x="1993.8" y="982.3" class="st0" width="167.2" height="136.8"/>
<line class="st0" x1="248.3" y1="656.9" x2="248.3" y2="465.5"/>
<line class="st0" x1="248.3" y1="1272.2" x2="248.3" y2="1081.7"/>
<line class="st0" x1="457.5" y1="826.6" x2="1850.8" y2="826.6"/>
<line class="st0" x1="457.9" y1="929.5" x2="1850.8" y2="929.5"/>
<line class="st0" x1="1850.3" y1="826.6" x2="1850.3" y2="608.3"/>
<line class="st0" x1="1850.6" y1="1163.6" x2="1850.6" y2="929"/>
<line class="st0" x1="768.4" y1="1327.1" x2="1189.6" y2="1327.1"/>
<line class="st0" x1="768.4" y1="1359.4" x2="1189.6" y2="1359.4"/>
<line class="st0" x1="247.6" y1="465.5" x2="763.2" y2="465.5"/>
<line class="st0" x1="247.8" y1="1272.2" x2="763.1" y2="1272.2"/>
<g>
	<rect x="2105.2" y="99.8" class="st0" width="183.5" height="136.8"/>
</g>
<line class="st0" x1="1639.2" y1="1306.4" x2="2059.5" y2="1306.4"/>
<line class="st0" x1="768" y1="509.7" x2="1189.1" y2="509.7"/>
<line class="st0" x1="984.1" y1="331.3" x2="984.1" y2="272.9"/>
<line class="st0" x1="732.2" y1="379.4" x2="768.6" y2="379.4"/>
<line class="st0" x1="1188.4" y1="407.8" x2="1210.5" y2="407.8"/>
<line class="st0" x1="767.6" y1="495.2" x2="710.5" y2="495.2"/>
<line class="st0" x1="768" y1="554.2" x2="710.9" y2="554.2"/>
<line class="st0" x1="984.5" y1="599.5" x2="984.5" y2="646.7"/>
<line class="st0" x1="1846.8" y1="355" x2="1846.8" y2="272.9"/>
<line class="st0" x1="2060.5" y1="403.6" x2="2198" y2="403.6"/>
<line class="st0" x1="1639.7" y1="457.5" x2="1508.7" y2="457.5"/>
<line class="st0" x1="2061.2" y1="505.7" x2="2174.8" y2="505.7"/>
<line class="st0" x1="2060.5" y1="563.5" x2="2137.4" y2="563.5"/>
<line class="st0" x1="1640.7" y1="590" x2="1510.7" y2="590"/>
<line class="st0" x1="2059.5" y1="1222.5" x2="2082.9" y2="1222.5"/>
<line class="st0" x1="2060.2" y1="1248.4" x2="2099.9" y2="1248.4"/>
<line class="st0" x1="985.1" y1="1151.2" x2="985.1" y2="1097.1"/>
<line class="st0" x1="1188.7" y1="1201.3" x2="1219" y2="1201.3"/>
<line class="st0" x1="768.4" y1="1231.9" x2="650.2" y2="1231.9"/>
<line class="st0" x1="1188.7" y1="1258.7" x2="1249.3" y2="1258.7"/>
<line class="st0" x1="1188.7" y1="1285.8" x2="1219" y2="1285.8"/>
<line class="st0" x1="767.9" y1="1314.7" x2="622.3" y2="1314.7"/>
<line class="st0" x1="1188.7" y1="1343" x2="1209" y2="1343"/>
<line class="st0" x1="980.1" y1="1387.3" x2="980.1" y2="1475.1"/>
<line class="st0" x1="768" y1="393.1" x2="1189.2" y2="393.1"/>
<line class="st0" x1="1218.5" y1="1285.3" x2="1218.5" y2="1625.4"/>
<line class="st0" x1="650.7" y1="1106.3" x2="650.7" y2="1231.4"/>
<line class="st0" x1="1218" y1="1625.9" x2="1236.8" y2="1625.9"/>
<line class="st0" x1="1076.7" y1="1614.2" x2="1209" y2="1614.2"/>
<line class="st0" x1="622.8" y1="1315.2" x2="622.8" y2="1463.8"/>
<line class="st0" x1="1219.5" y1="1201.8" x2="1219.5" y2="1097.1"/>
<line class="st0" x1="1509.2" y1="458" x2="1509.2" y2="332.2"/>
<line class="st0" x1="2197.5" y1="403.6" x2="2197.5" y2="237.2"/>
<line class="st0" x1="2136.9" y1="623.5" x2="2136.9" y2="564"/>
<line class="st0" x1="1510.2" y1="617.9" x2="1510.2" y2="589.5"/>
<line class="st0" x1="1638.5" y1="1349.5" x2="2060.2" y2="1349.5"/>
<line class="st0" x1="2082.8" y1="1223" x2="2082.8" y2="1119.7"/>
<line class="st0" x1="1615.9" y1="1189" x2="1638.8" y2="1189"/>
<line class="st0" x1="1616.4" y1="1189" x2="1616.4" y2="1129.4"/>
<line class="st0" x1="2082.7" y1="1509.2" x2="2082.7" y2="1325.3"/>
<line class="st0" x1="2059.8" y1="1325.8" x2="2083.2" y2="1325.8"/>
<line class="st0" x1="1610.9" y1="1284.7" x2="1638.7" y2="1284.7"/>
<line class="st0" x1="1611.4" y1="1284.7" x2="1611.4" y2="1567.4"/>
<line class="st0" x1="1245.4" y1="524.7" x2="1188.4" y2="524.7"/>
<line class="st0" x1="1245.4" y1="524.2" x2="1245.4" y2="688.9"/>
<line class="st0" x1="711.4" y1="553.7" x2="711.4" y2="653.6"/>
<line class="st0" x1="1208.5" y1="1342.5" x2="1208.5" y2="1614.7"/>
<rect x="553.8" y="369.7" class="st0" width="177.9" height="21.3"/>
<rect x="553.8" y="485" class="st0" width="156.2" height="21.3"/>
<rect x="1755" y="1449.3" class="st0" width="192.2" height="21.3"/>
<line class="st0" x1="1849.6" y1="1380.4" x2="1849.6" y2="1448.8"/>
<rect x="884" y="1603" class="st0" width="192.2" height="21.3"/>
<rect x="553.8" y="430.6" class="st0" width="192.2" height="21.3"/>
<line class="st0" x1="746.6" y1="441.8" x2="768.6" y2="441.8"/>
<line class="st0" x1="1640.7" y1="573.6" x2="2060.5" y2="573.6"/>
<rect x="1416.1" y="522.3" class="st0" width="192.2" height="21.3"/>
<line class="st0" x1="1640.7" y1="532.7" x2="1608.9" y2="532.7"/>
</svg>
