<?xml version="1.0" encoding="utf-8"?>
<!-- Generator: Adobe Illustrator 25.0.0, SVG Export Plug-In . SVG Version: 6.00 Build 0)  -->
<svg version="1.1" id="Layer_4" xmlns="http://www.w3.org/2000/svg" xmlns:xlink="http://www.w3.org/1999/xlink" x="0px" y="0px"
	 viewBox="0 0 1008 1440" style="enable-background:new 0 0 1008 1440;" xml:space="preserve">
<style type="text/css">
	.st0{fill:none;stroke:#000000;stroke-linecap:round;stroke-linejoin:round;stroke-miterlimit:10;}
	.st1{fill:none;stroke:#000000;stroke-width:0.5;stroke-linecap:round;stroke-linejoin:round;stroke-miterlimit:10;}
</style>
<g>
	<polyline class="st0" points="421.7,1078.7 720.5,1078.7 720.5,791.6 	"/>
	<polyline class="st0" points="720.5,791.6 718.9,321.4 201.5,320.8 201.5,1081.3 421.7,1078.7 	"/>
	<g>
		<path class="st0" d="M229.8,1057.6c0,3-2.4,5.4-5.4,5.4s-5.4-2.4-5.4-5.4s2.4-5.4,5.4-5.4C227.3,1052.2,229.8,1054.6,229.8,1057.6
			z"/>
		<path class="st1" d="M228,1057.6c0,2-1.6,3.6-3.6,3.6s-3.6-1.6-3.6-3.6s1.6-3.6,3.6-3.6S228,1055.6,228,1057.6z"/>
		<path class="st1" d="M226.6,1057.6c0,1.2-1,2.3-2.3,2.3c-1.2,0-2.3-1-2.3-2.3c0-1.2,1-2.3,2.3-2.3
			C225.6,1055.4,226.6,1056.4,226.6,1057.6z"/>
		<path class="st0" d="M702.1,1054.9c0,3-2.4,5.4-5.4,5.4s-5.4-2.4-5.4-5.4s2.4-5.4,5.4-5.4C699.7,1049.5,702.1,1051.9,702.1,1054.9
			z"/>
		<path class="st1" d="M700.3,1054.9c0,2-1.6,3.6-3.6,3.6s-3.6-1.6-3.6-3.6s1.6-3.6,3.6-3.6C698.7,1051.2,700.3,1052.9,700.3,1054.9
			z"/>
		<path class="st1" d="M698.9,1054.9c0,1.2-1,2.3-2.3,2.3s-2.3-1-2.3-2.3c0-1.2,1-2.3,2.3-2.3S698.9,1053.6,698.9,1054.9z"/>
		<path class="st0" d="M228.4,344.7c0,3-2.4,5.4-5.4,5.4s-5.4-2.4-5.4-5.4s2.4-5.4,5.4-5.4C226,339.2,228.4,341.7,228.4,344.7z"/>
		<path class="st1" d="M226.6,344.7c0,2-1.6,3.6-3.6,3.6s-3.6-1.6-3.6-3.6s1.6-3.6,3.6-3.6S226.6,342.6,226.6,344.7z"/>
		<path class="st1" d="M225.2,344.7c0,1.2-1,2.3-2.3,2.3c-1.2,0-2.3-1-2.3-2.3c0-1.2,1-2.3,2.3-2.3
			C224.2,342.4,225.2,343.4,225.2,344.7z"/>
		<path class="st0" d="M700.7,344.7c0,3-2.4,5.4-5.4,5.4s-5.4-2.4-5.4-5.4s2.4-5.4,5.4-5.4C698.3,339.2,700.7,341.7,700.7,344.7z"/>
		<path class="st1" d="M698.9,344.7c0,2-1.6,3.6-3.6,3.6s-3.6-1.6-3.6-3.6s1.6-3.6,3.6-3.6C697.3,341,698.9,342.6,698.9,344.7z"/>
		<path class="st1" d="M697.6,344.7c0,1.2-1,2.3-2.3,2.3c-1.2,0-2.3-1-2.3-2.3c0-1.2,1-2.3,2.3-2.3
			C696.5,342.4,697.6,343.4,697.6,344.7z"/>
	</g>
</g>
</svg>
