<?xml version="1.0" encoding="utf-8"?>
<!-- Generator: Adobe Illustrator 25.0.0, SVG Export Plug-In . SVG Version: 6.00 Build 0)  -->
<svg version="1.1" id="Layer_4" xmlns="http://www.w3.org/2000/svg" xmlns:xlink="http://www.w3.org/1999/xlink" x="0px" y="0px"
	 viewBox="0 0 1008 1440" style="enable-background:new 0 0 1008 1440;" xml:space="preserve">
<style type="text/css">
	.st0{fill:none;stroke:#000000;stroke-linecap:round;stroke-linejoin:round;stroke-miterlimit:10;}
	.st1{fill:none;stroke:#000000;stroke-width:0.5;stroke-linecap:round;stroke-linejoin:round;stroke-miterlimit:10;}
</style>
<g>
	<rect x="768.2" y="899.3" class="st0" width="60.1" height="60.1"/>
	<g>
		<path class="st0" d="M803.7,917.6c0,3-2.4,5.4-5.4,5.4s-5.4-2.4-5.4-5.4s2.4-5.4,5.4-5.4C801.2,912.2,803.7,914.6,803.7,917.6z"/>
		<path class="st1" d="M801.9,917.6c0,2-1.6,3.6-3.6,3.6s-3.6-1.6-3.6-3.6s1.6-3.6,3.6-3.6C800.3,914,801.9,915.6,801.9,917.6z"/>
		<path class="st1" d="M800.5,917.6c0,1.2-1,2.3-2.3,2.3c-1.2,0-2.3-1-2.3-2.3c0-1.2,1-2.3,2.3-2.3S800.5,916.4,800.5,917.6z"/>
		<path class="st0" d="M803.7,940.9c0,3-2.4,5.4-5.4,5.4s-5.4-2.4-5.4-5.4s2.4-5.4,5.4-5.4C801.2,935.5,803.7,938,803.7,940.9z"/>
		<path class="st1" d="M801.9,940.9c0,2-1.6,3.6-3.6,3.6s-3.6-1.6-3.6-3.6s1.6-3.6,3.6-3.6C800.3,937.3,801.9,938.9,801.9,940.9z"/>
		<path class="st1" d="M800.5,940.9c0,1.2-1,2.3-2.3,2.3c-1.2,0-2.3-1-2.3-2.3c0-1.2,1-2.3,2.3-2.3
			C799.5,938.7,800.5,939.7,800.5,940.9z"/>
	</g>
</g>
</svg>
