<?xml version="1.0" encoding="utf-8"?>
<!-- Generator: Adobe Illustrator 25.0.0, SVG Export Plug-In . SVG Version: 6.00 Build 0)  -->
<svg version="1.1" id="Layer_4" xmlns="http://www.w3.org/2000/svg" xmlns:xlink="http://www.w3.org/1999/xlink" x="0px" y="0px"
	 viewBox="0 0 1008 1440" style="enable-background:new 0 0 1008 1440;" xml:space="preserve">
<style type="text/css">
	.st0{fill:none;stroke:#000000;stroke-linecap:round;stroke-linejoin:round;stroke-miterlimit:10;}
	.st1{fill:none;stroke:#000000;stroke-width:0.5;stroke-linecap:round;stroke-linejoin:round;stroke-miterlimit:10;}
</style>
<g>
	<rect x="421.7" y="1063" class="st0" width="148.6" height="82.7"/>
	<g>
		<path class="st0" d="M444.2,1106c0,3-2.4,5.4-5.4,5.4s-5.4-2.4-5.4-5.4s2.4-5.4,5.4-5.4C441.8,1100.6,444.2,1103,444.2,1106z"/>
		<circle class="st1" cx="438.8" cy="1106" r="3.6"/>
		<path class="st1" d="M441,1106c0,1.2-1,2.3-2.3,2.3s-2.3-1-2.3-2.3c0-1.2,1-2.3,2.3-2.3S441,1104.7,441,1106z"/>
		<path class="st0" d="M559,1104.6c0,3-2.4,5.4-5.4,5.4s-5.4-2.4-5.4-5.4s2.4-5.4,5.4-5.4S559,1101.6,559,1104.6z"/>
		<circle class="st1" cx="553.6" cy="1104.6" r="3.6"/>
		<path class="st1" d="M555.9,1104.6c0,1.2-1,2.3-2.3,2.3c-1.2,0-2.3-1-2.3-2.3s1-2.3,2.3-2.3
			C554.8,1102.4,555.9,1103.4,555.9,1104.6z"/>
	</g>
</g>
</svg>
