<?xml version="1.0" encoding="utf-8"?>
<!-- Generator: Adobe Illustrator 25.0.0, SVG Export Plug-In . SVG Version: 6.00 Build 0)  -->
<svg version="1.1" id="Layer_4" xmlns="http://www.w3.org/2000/svg" xmlns:xlink="http://www.w3.org/1999/xlink" x="0px" y="0px"
	 viewBox="0 0 1008 1440" style="enable-background:new 0 0 1008 1440;" xml:space="preserve">
<style type="text/css">
	.st0{fill:none;stroke:#000000;stroke-linecap:round;stroke-linejoin:round;stroke-miterlimit:10;}
	.st1{fill:none;stroke:#000000;stroke-width:0.5;stroke-linecap:round;stroke-linejoin:round;stroke-miterlimit:10;}
</style>
<g>
	<g>
		<path class="st0" d="M303.3,704.3c0,3.2-2.6,5.7-5.7,5.7c-3.2,0-5.7-2.6-5.7-5.7c0-3.2,2.6-5.7,5.7-5.7
			C300.7,698.6,303.3,701.2,303.3,704.3z"/>
		
			<ellipse transform="matrix(0.7882 -0.6154 0.6154 0.7882 -370.4386 332.3094)" class="st1" cx="297.6" cy="704.3" rx="3.9" ry="3.9"/>
		<path class="st1" d="M300,704.3c0,1.3-1.1,2.4-2.4,2.4c-1.3,0-2.4-1.1-2.4-2.4c0-1.3,1.1-2.4,2.4-2.4C298.9,702,300,703,300,704.3
			z"/>
		<path class="st0" d="M235.2,704.3c0,3.2-2.6,5.7-5.7,5.7c-3.2,0-5.7-2.6-5.7-5.7c0-3.2,2.6-5.7,5.7-5.7
			C232.7,698.6,235.2,701.2,235.2,704.3z"/>
		
			<ellipse transform="matrix(0.7882 -0.6154 0.6154 0.7882 -384.8609 290.4024)" class="st1" cx="229.5" cy="704.3" rx="3.9" ry="3.9"/>
		<path class="st1" d="M231.9,704.3c0,1.3-1.1,2.4-2.4,2.4c-1.3,0-2.4-1.1-2.4-2.4c0-1.3,1.1-2.4,2.4-2.4
			C230.8,702,231.9,703,231.9,704.3z"/>
		<path class="st0" d="M302.8,732.9h-81.1c-2.3,0-4.1-1.8-4.1-4.1v-45.9c0-2.3,1.8-4.1,4.1-4.1h81.1c2.3,0,4.1,1.8,4.1,4.1v45.9
			C307,731,305.1,732.9,302.8,732.9z"/>
	</g>
</g>
</svg>
